<svg width="183" height="56" fill="none" xmlns="http://www.w3.org/2000/svg"><path fill-rule="evenodd" clip-rule="evenodd" d="M145.362 16.684c-.545.143-3.873-.995-4.8-1.242-3.984-1.066-10.394-2.088-14.598-2.21-.131-.003-1.026.024-1.094-.14-.018-.043-.067-.03-.096-.052-.284.197.122.087-.495.135-.206.016-.562-.014-.779-.022-1.835-.07-8.812.101-9.759.52.456.169 4.992.543 5.987.686a84.704 84.704 0 0130.26 10.496c.783.454 3.816 2.193 4.176 2.62-.643.587-2.234 1.388-3.089 1.899-12.342 7.372-29.713 11.21-43.965 12.809-4.509.506-9.883.846-14.48.975-1.62.046-3.472-.005-5.056.14.333-.035 3.88.474 4.698.551 11.777 1.115 24.218 1.067 35.876-.63 9.087-1.323 17.076-3.495 25.048-7.464 2.614-1.302 4.657-2.702 6.815-4.149.777.364 3.14 2.41 3.996 3.098.32.257.429.41.757.661l1.508 1.33c.556.595.946.838 1.501 1.34.49.442.916.958 1.412 1.422l2.103 2.156c.269.29.531.454.811.734l2.685 2.99c2.407 2.932 3.972 4.807 6.188 8.004.219.316.898 1.463 1.162 1.693-.355-1.496-2.449-6.376-3.182-7.931-3.347-7.103-5.603-9.742-10.043-15.111l-2.143-2.113c-.268-.255-.398-.475-.667-.75-.514-.524-1.018-.677-1.503-1.397l2.194-2.383c2.293-2.602 3.904-5.204 5.498-8.435 1.975-4.003 3.49-9.817 3.767-14.799l-1.444 3.453c-1.702 3.643-4.036 7.151-6.55 10.091l-8.593 8.154-3.234-1.98c-3.36-1.927-5.482-2.94-9.096-4.32-.365-.14-.623-.244-.944-.348-.088-.028-.46-.138-.495-.153-.56-.24-.361.054-.337-.328z" fill="#fff"/><path fill-rule="evenodd" clip-rule="evenodd" d="M94.4 11.882c.375.125 2.628 1.323 2.872 1.661-.68.396-1.755.75-2.508 1.069-1.538.652-1.252.23-1.739 1.869-.384 1.295-1.525 4.493-1.623 5.542l27.781-.016 1.335-4.422-20.841-.023 8.968-3.854c-.614-.622-5.988-3.29-6.752-3.862-.157-.117-.13-.093-.233-.212l21.239-.009 1.34-4.457-27.825.003-2.015 6.71zM60.743 22.017l6.131.011L70.618 9.65c4.262-.184 10.867.02 15.494-.03-.42 1.837-.694 1.523-2.377 2.221-.696.29-2.75 1.245-3.333 1.333l-9.258.023c-.371.958-1.156 3.435-1.325 4.46 2.998-.053 6.036-.007 9.039-.007 3.542 0 3.383-.254 7.139-1.871 1.094-.472 2.094-.88 3.173-1.345 2.61-1.125 1.656-.092 3.374-5.652.326-1.054.86-2.56 1.046-3.623l-27.78.005-5.066 16.853zm64.03-8.977c.029.023.078.01.096.053.068.163.963.136 1.094.14 4.204.121 10.613 1.143 14.598 2.209.927.248 4.255 1.385 4.8 1.242 1.187-.507 2.45-1.006 3.659-1.487l2.752-1.119c.562-.225.53-.124.721-.7.438-1.32.816-2.728 1.211-4.073.375-1.28 1.001-2.91 1.2-4.148l-27.794.007-2.337 7.876zM34.586 9.451l6.996 6.014c.222.204.36.275.573.464.388.344.8.664 1.075.935l-1.511 5.134 6.135.022c.331-1.026.617-2.051.934-3.07.508-1.636.164-1.702 1.615-2.51l10.344-5.91c1.444-.845 1.477-.422 1.981-2.144.274-.936.795-2.297.93-3.229l-6.114.004c-.954 2.95.167 1.72-4.48 4.394-.927.534-5.161 3.083-5.86 3.234-.277-.333-.267-.357-.63-.634l-5.265-4.487.712-2.499-6.153-.01-1.282 4.292zm-9.175 1.898l-13.92.03-1.363 4.417 13.92.039-1.83 6.167 6.144.025 5.048-16.82-6.146-.044-1.853 6.186zM.586 22.014l6.102.013L11.74 5.201l-6.037-.037C5.561 5.4.662 21.392.586 22.014zm130.318-8.817c3.335-.012 6.678-.015 10.013-.001 1.832.008 3.664-.944 5.588-1.806.634-.284.662-.53.918-1.768l-15.28.005c-.44.122-1.162 3.19-1.239 3.57zm-8.837 8.813l.529.02 5.16-.002.454-.024 1.273-4.198c-.751-.456-4.649-1.263-5.743-1.421l-1.673 5.625z" fill="#fff"/></svg>