<svg width="112" height="86" fill="none" xmlns="http://www.w3.org/2000/svg"><path d="M2.267 62.697c-4.198 2.774-2.799 8.045 6.156 10.542 9.235 3.051 19.309 3.884 29.103 2.22.56 0 1.12-.278 1.4-.278v-9.433L29.41 68.8c-3.638 1.11-7.276 1.387-10.914.555-2.798-.832-2.238-2.497 1.12-3.884l19.308-6.658V48.548l-26.864 9.155a36.308 36.308 0 00-9.794 4.994zm64.922-41.613v26.91c11.473 5.548 20.428 0 20.428-14.426 0-14.703-5.317-21.361-20.708-26.633C58.794 4.161 50.4 1.665 42.004 0v80.174L61.592 86V18.587c0-3.051 0-5.27 2.239-4.439 3.078.833 3.358 3.884 3.358 6.936zm36.379 35.232c-8.115-2.774-16.79-3.884-25.186-3.052-4.477.278-8.675 1.388-12.592 2.775l-.84.277v10.82l18.19-6.659c3.638-1.11 7.275-1.387 10.913-.554 2.799.832 2.239 2.496-1.12 3.883L64.95 74.071v10.542l38.618-14.148c2.798-1.11 5.317-2.497 7.555-4.717 1.959-2.774 1.12-6.658-7.555-9.432z" fill="#fff"/></svg>