<svg width="202" height="50" fill="none" xmlns="http://www.w3.org/2000/svg"><path d="M26.42 50C10.582 49.994 0 38.718 0 25.044 0 11.372 10.607-.035 26.396 0h149.208C191.393-.035 202 11.372 202 25.045c0 13.673-10.583 24.95-26.42 24.955H26.42zm.049-43.85C13.93 6.176 6.234 14.596 6.234 25.013c0 10.415 7.648 18.905 20.235 18.859H175.53c12.587.043 20.237-8.444 20.237-18.859 0-10.414-7.696-18.834-20.234-18.859L26.469 6.151zm75.003 20.382c-.011-1.371.019-2.288.467-3.07.55-.965 1.561-1.423 2.478-1.428h-.002c.917.005 1.929.463 2.479 1.428.447.785.466 1.701.456 3.073l-5.878-.003zm5.854 4.72s.005.07.005.948c0 2.863-1.875 3.499-2.916 3.499s-2.948-.636-2.948-3.499c0-.857.005-3.231.005-3.231s13.271.005 13.271-.003c0-4.854-4.665-8.875-10.395-8.875-5.73 0-10.373 3.935-10.373 8.789 0 4.854 4.643 8.786 10.373 8.786 4.753 0 8.769-2.725 9.995-6.42l-7.017.006zm22.165-10.9c2.634-.075 7.978 1.658 7.94 7.854-.005 1.1-.002 8.517-.002 8.517h-6.999v-10.28c0-1.364-1.298-2.881-3.219-2.881-1.918 0-3.346 1.517-3.346 2.881l.009 10.28h-6.993l.005-15.652 6.991-.005s-.008 1.259 0 1.647a8.46 8.46 0 015.614-2.36zm-57.25 0c2.634-.075 7.977 1.658 7.94 7.854-.005 1.1-.003 8.517-.003 8.517H73.18v-10.28c0-1.364-1.298-2.881-3.219-2.881-1.918 0-3.345 1.517-3.345 2.881l.008 10.28H59.63l-.002-15.652 6.999-.005s-.008 1.259 0 1.647a8.46 8.46 0 015.615-2.36zm80.374-7.161h6.953v23.537h-6.964l-.003-.905c-2.696 1.7-5.738 1.698-8.107.587-.635-.296-4.817-2.312-4.817-7.76 0-4.131 3.879-8.643 8.957-8.195 1.671.148 2.859.76 3.986 1.396-.005-3.623-.005-8.66-.005-8.66zm.051 15.632v-2.797c0-2.42-1.663-3.038-2.758-3.038-1.121 0-2.763.617-2.763 3.038l.003 2.789-.003 2.784c0 2.418 1.642 3.052 2.76 3.052 1.097 0 2.763-.634 2.763-3.052l-.002-2.776zm22.321-.046l-.003 3.316c0 2.496-1.468 3.525-2.878 3.525-1.414 0-2.887-1.03-2.887-3.526l.003-3.374s.005-2.315.005-3.264c0-2.485 1.476-3.506 2.879-3.506 1.406 0 2.878 1.021 2.878 3.506 0 .949-.003 2.704.006 3.332l-.003-.009zm-2.83-8.77c-5.687 0-10.296 3.935-10.296 8.79 0 4.853 4.611 8.789 10.296 8.789 5.687 0 10.296-3.936 10.296-8.79 0-4.854-4.609-8.79-10.296-8.79zm-123.469-2.01v-4.812h7.06v4.811h-7.06zm.016 18.731V21.074l7.044.003v15.651h-7.044zm35.342 0l.003-15.621h-3.83v-2.323l3.833-.003-.005-3.17h7.05v3.167h3.814v2.329h-3.815l.006 15.621h-7.056zm-64.01 0l.003-23.537h7.298l10.098 16.414-.006-16.414h7.243v23.537H37.44L27.29 20.315v16.413h-7.254z" fill="#fff"/></svg>