<svg width="134" height="64" fill="none" xmlns="http://www.w3.org/2000/svg"><path d="M124.006 8.394L24.121 6.363 5.498 41.915l2.37 13.544 14.899 3.047H38.68l16.252-3.047 12.19 3.047 17.606-3.047 8.804 1.354 20.654-1.354c3.273-4.29 9.819-13.002 9.819-13.544 0-.542 3.16-14.221 4.74-20.993l-4.74-12.528z" fill="#fff"/><path fill-rule="evenodd" clip-rule="evenodd" d="M126.455 34.853c1.248-3.708 2.663-9.258 2.904-13.713.179-3.358-.276-8.067-3.452-11.417-2.53-2.667-6.391-4.019-11.483-4.019-6.431 0-11.616 2.275-15.406 6.765l-1.002 1.182-.666-1.398c-.54-1.136-.931-1.602-1.518-2.267-2.592-2.937-6.939-4.423-12.917-4.423-5.476 0-10.427 1.643-13.934 4.626l-.886.754-.614-.99c-1.658-2.697-5.787-4.435-10.52-4.435-6.808 0-13.675.919-17.82 7.6l-1.712 2.759-.138-3.245c-.101-2.51-.334-3.554-1.501-4.793-1.288-1.36-3.447-2.022-6.609-2.022-4.643 0-8.131 2.022-10.672 6.19C14.6 18.248 5.156 38.78 5.367 48.537c.135 6.327 4.361 10.205 11.305 10.371 5.723.13 10.272-1.339 13.16-4.251l.738-.749.707.774c2.598 2.82 6.546 4.368 11.118 4.368 5.825 0 10.805-1.81 13.667-4.968l.78-.86.736.907c2.675 3.287 6.817 5.013 11.968 4.989 6.715-.03 12.988-3.117 17.208-8.468l1.106-1.401.62 1.68c2.592 7.069 9.648 8.121 13.621 8.121 13.495 0 19.325-9.256 24.354-24.196zm.898 10.467c1.864-3.852 5.383-13.493 6.032-18.693l.008-.063c.788-6.35 1.534-12.363-2.75-18.334-3.054-4.243-8.25-7.094-16.15-7.094-5.971 0-11.312 1.615-15.573 5.164-3.652-3.612-8.886-5.251-15.942-5.251-5.516 0-10.143 1.256-14.183 3.678C65.872 2.397 62.438.945 56.96.945c-4.959 0-11.928.254-17.187 4.722-1.212-2.475-3.683-4.422-10.496-4.422-6.274 0-11.4 2.962-14.753 8.474C10.036 16.883.52 37.564.763 48.865c.183 8.503 6.56 14.361 15.797 14.578 5.552.134 10.28-1.057 13.887-3.45 3.264 2.351 7.43 3.62 12.06 3.62 5.549 0 10.55-1.456 14.26-4.069 3.358 2.664 7.762 4.103 12.753 4.103 6.469 0 12.481-2.23 17.336-6.482 3.315 4.219 8.987 6.423 15.88 6.423 12.901 0 19.6-7.938 24.617-18.268z" fill="#FF0"/><path d="M115.379 20.852c-.15 3.703-5.575 18.51-7.501 21.776-.836 1.418-1.776 2.587-3.474 2.583-1.48 0-2.138-1.048-2.18-2.246-.109-3.341 6.024-20.09 8.121-22.816.932-1.436 1.972-1.668 3.162-1.652 1.74.022 1.913 1.278 1.872 2.355zm9.885 6.046c-1.231 6.136-4.002 13.395-7.015 18.804-4.909 8.829-10.87 10.064-16.075 10.001-5.2-.062-11.075-1.984-11.116-10.014-.033-5.766 2.454-13.904 4.568-19.238 3.678-9.673 7.439-17.556 19.329-17.415 13.863.163 11.392 12.495 10.309 17.862zm-44.02-8.6c-2.01 0-3.32 1.269-4.297 2.642-2.148 3.016-6.807 15.11-7.53 20.078-.492 3.404.974 4.093 2.582 4.093 2.576 0 5.463-2.724 6.449-7.222 0 0-4.905-.121-3.552-4.47 1.31-4.222 3.807-5.133 7.938-5.304 8.141-.332 7.335 5.679 6.685 8.883-2.115 10.41-9.523 18.771-20.004 18.771-7.175 0-11.626-3.972-11.626-11.286 0-5.21 2.586-13.393 4.634-18.18 4.363-10.194 8.94-17.329 20.597-17.329 6.993 0 12.51 2.513 11.699 9.066-.591 4.81-2.996 7.634-7.367 7.975-1.224.095-6.228-.033-4.569-4.768.578-1.651.819-2.95-1.639-2.95zM44.772 36.32c-.483 1.302-1.39 4.019-2.122 6.902 2.378-.59 4.163-1.01 7.22-.931 3.487.082 5.715 1.53 5.715 4.41 0 6.985-7.72 9.036-13.076 9.036-5.883 0-11.046-3.35-11.046-9.778 0-7.543 4.086-18.971 7.92-26.585C44.093 10.023 48.907 8.78 57.194 8.78c3.643 0 7.838 1.556 7.838 4.992 0 4.768-4.037 6.586-8.044 6.82-1.708.095-4.34.19-5.911.079 0 0-1.334 2.034-2.753 5.65 7.416-1.045 10.562.64 9.31 4.93-1.692 5.79-6.716 6.174-12.863 5.071zm-23.619 6.702c7.254-1.26 9.079 1.365 8.848 3.786-.68 7.272-7.352 8.895-13.143 8.762-4.2-.1-7.976-2.021-8.081-6.898-.183-8.529 8.516-28.262 12.614-34.801 1.889-3.107 4.193-4.639 7.869-4.639 3.48 0 4.345 1.785 4.293 3.927-.135 5.712-9.371 23.077-12.4 29.863zm93.27-38.317c-7.489 0-12.664 2.97-16.168 7.114-.59-1.239-1.044-1.784-1.677-2.5-2.866-3.241-7.48-4.756-13.667-4.756-6.044 0-11.084 1.89-14.581 4.864-1.818-2.954-6.147-4.914-11.37-4.914-6.825 0-14.259.97-18.672 8.076-.102-2.56-.337-3.911-1.777-5.438-1.747-1.847-4.576-2.334-7.332-2.334-5.024 0-8.802 2.193-11.52 6.662-3.945 6.302-13.51 27.038-13.291 37.077.135 6.49 4.49 11.162 12.277 11.345 6.087.146 10.859-1.481 13.896-4.543 2.723 2.954 6.881 4.693 11.853 4.693 5.537 0 11.114-1.66 14.407-5.296 2.776 3.403 7.137 5.383 12.748 5.357 7.339-.032 13.778-3.51 17.99-8.844 2.304 6.285 8.162 8.782 14.561 8.782 14.02 0 20.173-9.635 25.303-24.879 1.157-3.437 2.697-9.165 2.955-13.978.423-8.013-2.967-16.488-15.935-16.488z" fill="#232528"/></svg>