<svg width="180" height="54" fill="none" xmlns="http://www.w3.org/2000/svg"><g clip-path="url(#clip0)" fill="#fff"><path d="M175.689 43.617l-10.483-14.04-10.471 14.04h-4.313l12.602-16.963-11.509-15.42h4.313l9.378 12.576 9.379-12.575h4.311L167.395 26.65 180 43.617h-4.311zm-81.683-.006l-12.617-16.96L92.9 11.235h-4.314l-9.381 12.578-9.373-12.578H65.53L77.033 26.65l-12.614 16.96h4.32l10.47-14.034 10.48 14.034h4.317z"/><path d="M117.991 27.878a9.199 9.199 0 00-2.152-1.351 7.389 7.389 0 002.885-2.702 7.258 7.258 0 001.061-3.783c0-2.072-.774-8.81-10.667-8.81H95.795v13.961h-4.438c-.575.74-1.883 2.52-2.381 3.25h6.819v15.169l13.326.003c7.219 0 11.702-3.616 11.702-9.454 0-2.548-.975-4.714-2.832-6.283zM99.479 14.613h9.642c2.609 0 6.98.641 6.98 5.145 0 3.406-2.545 5.435-6.98 5.435h-9.642v-10.58zm9.639 25.624h-9.642V28.451h9.642c3.656 0 8.03.996 8.03 5.64 0 5.346-5.03 6.146-8.03 6.146zm29.038-29.748c-9.217 0-15.659 6.956-15.659 16.918 0 9.975 6.442 16.926 15.659 16.926 9.209 0 15.633-6.95 15.633-16.926 0-9.962-6.424-16.918-15.633-16.918zm0 30.418c-7.023 0-11.943-5.554-11.943-13.5 0-7.947 4.92-13.498 11.943-13.498 7.011 0 11.903 5.551 11.903 13.498 0 7.946-4.892 13.5-11.903 13.5zM8.161 7.771l-.025.022v.003a26.89 26.89 0 00-6.027 8.795A26.598 26.598 0 000 27 26.647 26.647 0 005.59 43.35c.038.045.095.07.147.045.049-.028.052-.088.032-.139-2.085-6.363 8.573-21.784 14.08-28.25.017-.022.04-.048.04-.079 0-.037-.026-.065-.052-.088C10.574 5.741 8.101 7.822 8.136 7.793l.025-.022zm38.382 0l.026.022v.003a26.884 26.884 0 016.025 8.795A26.593 26.593 0 0154.702 27a26.646 26.646 0 01-5.591 16.35c-.035.045-.095.07-.147.045-.046-.028-.049-.088-.032-.139 2.085-6.363-8.564-21.796-14.068-28.264-.02-.022-.04-.048-.04-.076 0-.04.023-.069.051-.091 9.266-9.099 11.722-7.004 11.69-7.033l-.022-.022zM27.353.009c5.518 0 10.059 1.492 14.246 3.95.052.026.066.082.046.133-.02.049-.078.06-.132.046-5.295-1.13-13.344 3.386-14.103 3.837-.018.011-.035.023-.058.023a.104.104 0 01-.06-.023c-2.02-1.144-9.459-4.992-14.144-3.809-.052.012-.11.003-.132-.048a.107.107 0 01.046-.133C17.249 1.5 21.848.009 27.352.009zm0 21.648c.03 0 .065.026.085.043 8.185 6.141 22.193 21.324 17.917 25.618l.006-.005-.003.005h-.006a27.449 27.449 0 01-18.003 6.678 27.464 27.464 0 01-18.006-6.678l-.005-.005.005.005C5.076 43.024 19.081 27.841 27.257 21.7c.023-.017.06-.043.095-.043z"/></g><defs><clipPath id="clip0"><path fill="#fff" d="M0 0h180v54H0z"/></clipPath></defs></svg>