<svg width="180" height="47" fill="none" xmlns="http://www.w3.org/2000/svg"><path d="M171.572 5.466H180v36.069h-8.428V5.466zm-11.037 36.069h8.629L154.716 5.466h-7.826l-11.84 36.069h18.662v-7.687h-7.625l5.017-15.57 9.431 23.257zM44.147 5.466l-11.84 36.069h18.864v-7.687h-7.827l5.017-15.57 9.432 23.257h8.83L51.972 5.467h-7.826zm44.95 18.724L76.054 5.466H69.03v36.069h8.428V22.417l13.445 19.118h6.622V5.467h-8.428V24.19zm29.298-18.724h-15.653v36.069h15.653c5.495-.01 16.572-2.677 16.655-18.133-.083-15.34-11.16-18.008-16.655-17.936zm-1.806 28.382h-5.218V12.956h5.218c3.327.033 9.391 1.265 9.431 10.446-.04 9.296-6.104 10.528-9.431 10.446zm-90.1-10.446c2.712-2.2 3.755-5.896 3.812-9.066-.057-2.99-3.612-8.942-10.435-8.87H0v36.069h21.472c6.89-.007 9.816-6.373 9.832-9.658-.016-3.285-.434-6.57-4.816-8.475zm-9.633 10.446H8.428V12.956h8.027c4.07.033 4.592 2.7 4.615 3.942-.023 1.222-.652 3.686-4.615 3.745h-3.21v5.716h3.41c4.6-.027 4.81 2.798 4.813 3.744-.003 1.107-.214 3.827-4.612 3.745z" fill="#fff"/></svg>