<svg width="154" height="52" fill="none" xmlns="http://www.w3.org/2000/svg"><path d="M45.387 23.17c-.997-.926-4.124-.561-10.168-.235 1.19-4.934 2.042-9.243 4.272-12.605 10.35.568 23.066 1.991 37.625 1.952 28.681-.081 28.935-10.538 28.935-10.538-12.198 3.445-28.96 2.421-41.628 1.28C48.509 1.592 32.595-1.993 19.448 1.45 3.92 5.513 2.428 16.805 2.982 21.651c6.225-8.01 14.655-10.86 25.45-11.457a71.22 71.22 0 013.203-.085c-1.964 2.012-3.487 5.185-5.06 10.126-.346 1.084-.68 2.122-1.009 3.134-13.278 1.132-15.858 7.07-15.092 8.63.81 1.661 5.52-.518 11.405-1.155.373-.041.735-.078 1.094-.111-2.3 5.814-4.834 9.967-8.92 12.393C7.823 46.83 1.31 45.116 0 44.088c.506 6.788 10.922 10.487 19.782 5.74 7.06-3.783 11.149-12.813 13.385-19.578 1.926-.026 3.776-.048 5.834-.182 5.347-.355 7.69-5.683 6.386-6.898zM149.895 16.92a2.105 2.105 0 012.643-1.35 2.076 2.076 0 011.359 2.622c-.351 1.093-1.534 1.698-2.643 1.348l-.262-.108-5.447 6.916-14.619-4.651-.371-8.745-.244-.062a2.08 2.08 0 01-1.359-2.62 2.105 2.105 0 012.643-1.347 2.076 2.076 0 01.378 3.806c.58 2.604 1.304 4.742 2.276 5.056 1.265.395 2.461-2.887 3.258-6.099a2.264 2.264 0 01-1.12-2.707c.385-1.19 1.68-1.847 2.88-1.466a2.267 2.267 0 011.488 2.856 2.294 2.294 0 01-1.866 1.556c-.393 3.367-.493 6.45 1.016 6.928l.053.008c1.502.435 3.214-2.118 4.857-5.068a2.272 2.272 0 01-.576-2.32c.381-1.195 1.674-1.85 2.877-1.468a2.265 2.265 0 011.487 2.856 2.293 2.293 0 01-2.532 1.55c-1.236 3.07-2.191 6.437-.925 6.838.976.314 2.833-1.024 4.841-2.825a2.035 2.035 0 01-.092-1.503z" fill="#fff"/><path d="M143.105 27.165c-.384-.252-11.046-3.424-11.046-3.424s-3.478 1.277-5.892 3.52c-.825.76-1.619 1.553-2.334 2.429h-.006l-.011.019c-.665.82-1.192 1.693-1.749 2.63a24.753 24.753 0 00-1.997 4.095v-.007s-1.398 2.894-2.426 4.34c-.991 1.401-2.882 2.746-3.637 3.253a19.86 19.86 0 01-2.729 1.01c-6.205 1.772-7.347-2.602-5.96-4.668.501-.736 3.936-3.321 6.286-5.24 4.542-3.697 7.653-6.039 9.792-8.164 2.264-2.25.802-3.495-.955-3.789-4.387-.74-6.395.404-7.673 1.478-1.54 1.293-10.72 12.133-10.72 12.133s14.945-28.312 17.396-33.177c2.022-4.008-7.684-4.563-10.369 1.203-1.557 3.353-12.265 27.652-13.569 30.655-2.39 5.496-2.531 6.357-3.728 7.32l-.04.043-.086.06-.011.005c-1.15.932-2.763 1.773-3.838 1.757-.646-.008-1.028-.386-1.137-1.164-.11-.777-.016-1.769.285-2.971a26.43 26.43 0 01.718-2.362c.306-.852.633-1.718.989-2.594.354-.873.721-1.73 1.095-2.56.376-.839.718-1.604 1.03-2.305.315-.698.574-1.302.79-1.809.218-.502.349-.863.4-1.075.362-1.436.291-2.731-.085-3.549-.376-.817-1.058-1.22-2.038-1.22-.986 0-1.91.27-2.77.746-.942.529-1.797 1.11-2.688 2.16-.198.232-.497.59-.892 1.077-.392.486-.84 1.045-1.331 1.675a181.54 181.54 0 01-1.568 1.98c-.56.693-1.078 1.343-1.568 1.967-.493.625-.924 1.17-1.295 1.647-.381.478-.646.82-.819 1.035h-.59c.034-.136.128-.401.287-.803.158-.396.35-.864.57-1.399.223-.532.46-1.116.716-1.745a307.3 307.3 0 00.738-1.839c.237-.591.446-1.134.63-1.63.18-.496.309-.888.382-1.181.264-1.067.272-1.922.019-2.564-.254-.638-.91-.962-1.972-.962-1.064 0-1.974.305-2.746.905a6.354 6.354 0 00-1.81 2.242 99.006 99.006 0 00-1.892 4.139 140.087 140.087 0 00-2.049 5.025 150.25 150.25 0 00-1.87 5.128c-.263.773-.497 1.5-.71 2.186a27.15 27.15 0 01-4.344 1.736c-.576.172-1.292.288-1.704-.142-.301-.32-.31-.808-.268-1.244.215-2.302 1.22-4.446 2.173-6.554a200.223 200.223 0 004.498-10.777c.173-.455.348-.953.194-1.412-.234-.728-1.116-.993-1.874-1.092-1.646-.211-3.54-.048-4.604 1.212-.35.416-.579.918-.798 1.416L54.44 38.157c-1.145 2.558-2.559 5.375-5.233 6.286-.462.157-.986.246-1.434.05-.571-.251-.866-.915-.866-1.54 0-.616.244-1.209.481-1.785 2.248-5.419 3.908-9.187 6.152-14.614.106-.246.663-1.515.68-2.11.011-.42-.315-.78-.58-.901-1.434-.647-3.18-.255-4.475.634-2.035 1.407-3.15 3.679-4.152 5.836-1.117 2.4-2.253 4.793-3.267 7.236-1.161 2.795-2.406 5.502-3.041 8.464-.324 1.512-.234 3.467.877 4.55.724.709 1.81.912 2.821.944 4.116.129 8.012-2.004 11.017-4.793.104 1.478.326 3.167 1.574 3.981.797.524 1.821.536 2.768.437 1.91-.196 3.757-.788 5.537-1.491.741-.291 1.479-.607 2.203-.94.009.318.039.615.1.892.123.574.387 1.029.797 1.37.407.342 1.011.512 1.816.512.651 0 1.256-.146 1.819-.44.565-.29 1.139-.834 1.731-1.629l11.509-15.154h.472a150.409 150.409 0 00-1.676 4.357 36.892 36.892 0 00-1.175 3.775c-.744 2.97-.939 5.23-.588 6.772.354 1.545 1.07 2.319 2.15 2.319 1.086 0 2.15-.15 3.208-.453a21.506 21.506 0 003.128-1.165 30.14 30.14 0 002.089-1.09c0 .255-.072.745-.084.977-.039.835.087 1.01.485 1.372.393.359.8.393 1.64.393.635 0 .86-.051 1.415-.453.524-.372 2.42-3.143 3.877-5.122.242-.323.507-.662.794-1.008-.535 2.45.618 6.026 4.066 6.583 3.35.542 8.801-.21 15.835-5.58.126.75.312 1.456.579 2.116a6.868 6.868 0 002.407 3.076c1.094.785 2.551 1.179 4.37 1.179 1.261 0 2.501-.214 3.72-.645a16.166 16.166 0 003.521-1.743 19.395 19.395 0 003.155-2.6c.983-1 1.866-2.07 2.66-3.213a24.613 24.613 0 001.947-3.359c1.01-2.256 1.495-3.941 1.999-6.537.237-1.383.362-2.606.343-3.728 0 0-.125-2.76-.507-3.01zm-7.366 12.788c-2.713 4.72-6.587 7.124-8.65 5.37-2.067-1.754-1.543-6.996 1.17-11.711 2.712-4.722 6.589-7.125 8.652-5.375 2.067 1.753 1.543 6.998-1.172 11.716z" fill="#fff"/></svg>