<svg width="183" height="420" fill="none" xmlns="http://www.w3.org/2000/svg"><path d="M67.748 37.598l-1.036 1.219.093.08.105.064.838-1.363zm-.401-2.524l1.295.94-1.295-.94zm11.84-1.882L78.15 34.41l.094.08.104.064.838-1.363zm.4 2.524l1.295.94-1.295-.94zm-11.452.419a.613.613 0 01.203.005.73.73 0 01.248.095L66.91 38.96a2.507 2.507 0 001.728.334l-.503-3.16zm.65.244a.729.729 0 01.166.206c.044.08.061.15.068.191l-3.16.503c.092.58.368 1.126.853 1.538l2.072-2.438zm.234.397l-.215-1.35-3.16.502.214 1.35 3.16-.502zm-.215-1.35a.695.695 0 01-.01.242.9.9 0 01-.152.345l-2.59-1.88c-.413.57-.5 1.219-.408 1.795l3.16-.503zm-.162.587a.752.752 0 01-.48.296l-.502-3.16a2.432 2.432 0 00-1.608.985l2.59 1.88zm-.48.296l10.667-1.696-.502-3.16-10.667 1.695.503 3.16zm10.667-1.696a.806.806 0 01-.325-.02.903.903 0 01-.354-.182l2.072-2.438a2.318 2.318 0 00-1.895-.52l.502 3.16zm-.48-.058a.902.902 0 01-.284-.28.805.805 0 01-.12-.303l3.16-.502a2.319 2.319 0 00-1.081-1.642l-1.676 2.727zm-.404-.583l.215 1.351 3.16-.502-.214-1.351-3.16.502zm.215 1.351a.736.736 0 01.013-.282.75.75 0 01.12-.265l2.59 1.88c.39-.54.54-1.184.437-1.835l-3.16.502zm.132-.547a.9.9 0 01.282-.252.696.696 0 01.227-.084l.503 3.16c.575-.092 1.165-.375 1.578-.944l-2.59-1.88zm.51-.337l-10.667 1.696.502 3.16L79.305 37.6l-.503-3.16zm5.525 9.928l-1.036 1.22.094.079.105.064.838-1.363zm.15-3.414l1.21 1.049.045-.053.04-.056-1.295-.94zm6.34-8.735l-1.204-1.055-.048.055-.043.06 1.295.94zm3.18-4.297l1.427.724.004-.008.005-.009-1.436-.707zm-1.142-6.27l-.96 1.28.01.007.01.008.94-1.295zm-6.637 1.128l1.281.958.007-.01.007-.009-1.295-.94zm-1.015 3.478l1.6.012v-.041l-1.6.029zm-.254.696l1.123 1.14.013-.013.014-.013-1.15-1.114zm-2.95.47l-.94 1.295.059.042.062.037.819-1.374zm-.293-.464l-1.588.192.003.03.005.029 1.58-.251zm.449-3.826l1.505.542.005-.012-1.51-.53zm2.35-3.326l1.026 1.228.007-.006-1.032-1.223zm10.713-.72l-.962 1.28.011.008.011.008.94-1.295zm2.405 9.169l-1.472-.627-.003.008 1.475.619zm-2.838 4.388l-1.232-1.021-.037.044-.033.047 1.302.93zm-5.724 8.018l-1.303-.93-2.22 3.11 3.774-.6-.251-1.58zm11.736-1.61l-1.036 1.219.094.08.105.064.837-1.363zm.418 2.63l1.22 1.037.039-.047.036-.05-1.295-.94zm-16.5 1.222a.614.614 0 01.203.006.727.727 0 01.247.094L83.49 45.73a2.508 2.508 0 001.727.335l-.502-3.16zm.649.244a.73.73 0 01.166.206.61.61 0 01.068.191l-3.16.503c.092.58.368 1.126.853 1.538l2.073-2.438zm.234.397l-.18-1.137-3.16.502.18 1.138 3.16-.503zm-.18-1.137c.004.028-.007.03.012-.022a1.37 1.37 0 01.256-.384l-2.417-2.097c-.689.793-1.2 1.822-1.012 3.005l3.16-.502zm.354-.515l6.34-8.736-2.59-1.88-6.34 8.736 2.59 1.88zm6.248-8.62c1.601-1.828 2.773-3.384 3.404-4.628l-2.853-1.448c-.442.87-1.391 2.179-2.958 3.966l2.407 2.11zm3.413-4.645c.661-1.341.917-2.749.69-4.18l-3.16.503c.111.702.004 1.442-.4 2.263l2.87 1.414zm.69-4.18c-.268-1.686-1-3.128-2.328-4.092l-1.88 2.59c.484.35.878.941 1.047 2.005l3.16-.503zm-2.309-4.078c-1.336-1.002-2.996-1.219-4.739-.942l.503 3.16c1.196-.19 1.889.022 2.317.343l1.92-2.56zm-4.739-.942c-1.716.273-3.163 1.047-4.152 2.41l2.59 1.88c.405-.559 1.031-.965 2.065-1.13l-.503-3.16zm-4.138 2.392c-.951 1.271-1.364 2.796-1.334 4.466l3.2-.058c-.02-1.092.244-1.887.696-2.491l-2.562-1.917zm-1.334 4.425c0-.004.001-.059.032-.143a.75.75 0 01.165-.262l2.299 2.227c.512-.53.7-1.189.704-1.798l-3.2-.024zm.224-.431a.651.651 0 01.33-.172l.503 3.16a2.565 2.565 0 001.412-.709l-2.245-2.28zm.33-.172l-1.848.293.502 3.16 1.849-.293-.502-3.16zm-1.848.293a.674.674 0 01.212.004c.1.017.203.053.296.109l-1.637 2.75c.53.315 1.108.38 1.631.298l-.502-3.16zm.63.193a.923.923 0 01.348.58l-3.161.502a2.29 2.29 0 00.933 1.508l1.88-2.59zm.355.638a6.622 6.622 0 01.366-3.09l-3.01-1.086a9.822 9.822 0 00-.532 4.561l3.176-.385zm.37-3.103c.35-.997.958-1.87 1.867-2.628l-2.05-2.457c-1.322 1.103-2.282 2.448-2.836 4.025l3.02 1.06zm1.874-2.634c.873-.736 2.03-1.256 3.554-1.498l-.503-3.16c-1.985.315-3.716 1.033-5.115 2.213l2.064 2.445zm3.554-1.498c2.415-.384 4.052-.001 5.164.835l1.924-2.557c-2.035-1.53-4.65-1.906-7.59-1.438l.502 3.16zm5.186.852c1.215.881 1.979 2.131 2.258 3.89l3.16-.502c-.398-2.508-1.567-4.547-3.538-5.978l-1.88 2.59zm2.258 3.89c.193 1.21.058 2.317-.385 3.356l2.944 1.254c.69-1.62.884-3.336.602-5.112l-3.16.502zm-.388 3.364c-.464 1.104-1.305 2.43-2.595 3.986l2.463 2.042c1.402-1.69 2.453-3.29 3.082-4.79l-2.95-1.238zm-2.665 4.077l-5.725 8.018 2.605 1.86 5.724-8.018-2.604-1.86zm-4.171 10.528l11.092-1.763-.502-3.16-11.093 1.763.503 3.16zm11.092-1.763a.7.7 0 01-.264-.016.921.921 0 01-.38-.192l2.074-2.438c-.594-.505-1.308-.614-1.932-.514l.502 3.16zm-.444-.064a.904.904 0 01-.284-.28.807.807 0 01-.12-.303l3.161-.502a2.32 2.32 0 00-1.082-1.642l-1.675 2.727zm-.404-.583l.232 1.458 3.16-.503-.231-1.457-3.16.502zm.232 1.458a.736.736 0 01.014-.282.75.75 0 01.118-.265l2.59 1.88c.392-.54.542-1.184.438-1.836l-3.16.503zm.208-.644a.728.728 0 01.207-.166.605.605 0 01.191-.068l.502 3.16a2.51 2.51 0 001.539-.853l-2.439-2.073zm.398-.234l-15.68 2.492.503 3.16 15.679-2.492-.502-3.16zm7.062-1.872l1.077-1.183-1.077 1.183zm-3.388-6.642l1.571-.303-.002-.007-1.569.31zm-1.001-6.293l1.588-.195-.001-.009-.001-.008-1.586.212zm1.174-7.295l1.384.802.005-.009-1.389-.793zm13.474-2.142l-1.075 1.185.008.007 1.067-1.192zm3.378 6.571l-1.573.29.001.01.002.008 1.57-.308zm1 6.293l-1.588.193.001.006 1.587-.199zm-1.162 7.366l-1.391-.791 1.391.79zm-3.082-1.734l-1.401-.773-.005.008-.004.01 1.41.755zm.661-5.245l-1.588.197.001.01.001.01 1.586-.216zm-.939-5.901l-1.574.286.002.012.003.011 1.569-.31zm-2.219-4.787l1.117-1.146-1.117 1.146zm-8.106 1.288l-1.408-.76-.004.009-.005.008 1.417.743zm-.625 5.24l-1.585.215.001.008.001.008 1.583-.232zm.428 2.92l-1.583.232.003.02.003.018 1.577-.27zm.51 2.981l-1.577.27.001.008.002.008 1.574-.286zm2.219 4.787l-1.106 1.156.007.007.008.007 1.091-1.17zm4.571 2.611c-2.754.438-4.584-.08-5.816-1.201l-2.154 2.366c2.178 1.983 5.111 2.53 8.472 1.995l-.502-3.16zm-5.816-1.201c-1.387-1.263-2.387-3.132-2.894-5.762l-3.143.605c.602 3.123 1.861 5.683 3.883 7.523l2.154-2.366zm-2.896-5.769a95.392 95.392 0 01-.517-3.03l-3.16.503c.227 1.424.406 2.479.538 3.146l3.139-.619zm-.517-3.03a101.416 101.416 0 01-.465-3.148l-3.176.39c.086.697.247 1.79.481 3.261l3.16-.502zm-.467-3.165c-.346-2.591.026-4.648.972-6.281l-2.769-1.604c-1.38 2.381-1.791 5.188-1.375 8.308l3.172-.423zm.977-6.29c.848-1.486 2.435-2.551 5.152-2.983l-.502-3.16c-3.352.532-5.958 1.98-7.429 4.557l2.779 1.586zm5.152-2.983c2.745-.437 4.594.086 5.858 1.233l2.151-2.37c-2.201-1.996-5.141-2.56-8.511-2.024l.502 3.16zm5.866 1.24c1.406 1.26 2.397 3.099 2.872 5.67l3.146-.582c-.571-3.095-1.833-5.636-3.883-7.472l-2.135 2.384zm2.875 5.687c.256 1.31.446 2.353.569 3.132l3.161-.503a98.52 98.52 0 00-.59-3.244l-3.14.615zm.569 3.132c.12.754.258 1.767.413 3.046l3.177-.385a91.49 91.49 0 00-.429-3.164l-3.161.503zm.414 3.052c.333 2.658-.038 4.745-.966 6.376l2.782 1.582c1.352-2.377 1.755-5.2 1.359-8.356l-3.175.398zm-.966 6.376c-.821 1.444-2.409 2.509-5.191 2.951l.502 3.16c3.38-.537 6.013-1.966 7.471-4.53l-2.782-1.581zm-5.175 3.054c2.164-.344 3.898-1.384 4.894-3.24l-2.82-1.513c-.429.8-1.185 1.371-2.576 1.592l.502 3.16zm4.884-3.223c.961-1.74 1.168-3.873.846-6.235l-3.171.433c.269 1.967.035 3.33-.476 4.255l2.801 1.547zm.849-6.215a100.674 100.674 0 00-.412-3.052l-3.16.502c.093.587.225 1.563.396 2.943l3.176-.393zm-.412-3.052a86.951 86.951 0 00-.545-2.963l-3.139.62c.25 1.266.423 2.211.524 2.845l3.16-.502zm-.54-2.94c-.422-2.321-1.265-4.27-2.677-5.646l-2.234 2.291c.775.755 1.411 1.998 1.762 3.928l3.149-.573zm-2.677-5.646c-1.527-1.49-3.518-1.952-5.709-1.604l.502 3.16c1.412-.224 2.315.093 2.973.735l2.234-2.291zm-5.709-1.604c-2.176.346-3.911 1.406-4.922 3.278l2.816 1.52c.454-.84 1.229-1.418 2.608-1.637l-.502-3.16zm-4.931 3.295c-.915 1.746-1.112 3.86-.793 6.198l3.17-.432c-.265-1.943-.045-3.322.457-4.28l-2.834-1.486zm-.791 6.214l.428 2.921 3.166-.464-.428-2.92-3.166.463zm.434 2.96l.51 2.98 3.154-.54-.51-2.98-3.154.54zm.513 2.996c.424 2.338 1.266 4.298 2.687 5.657l2.212-2.312c-.757-.725-1.395-1.956-1.751-3.917l-3.148.572zm2.702 5.671c1.541 1.438 3.513 1.888 5.678 1.544l-.502-3.16c-1.391.22-2.309-.085-2.993-.724l-2.183 2.34zm18.189-13.256l-.903 1.32.018.013.019.012.866-1.345zm-2-3.181l-1.563.343.003.01 1.56-.353zm-.514-3.236l1.591-.163-.001-.011-1.59.174zm.833-3.704l-1.295-.94 1.295.94zm7.43-1.182l-.957 1.282.017.014.018.012.922-1.308zm1.976 3.259l-1.566.327.001.002 1.565-.33zm.515 3.235l-1.594.146.001.013.002.014 1.591-.173zm-.916 3.645l1.241 1.01.007-.009.008-.009-1.256-.992zm-5.045 14.58l-.94 1.296.059.042.062.037.819-1.374zm-.218-.912l1.391.79.009-.017.01-.017-1.41-.756zm13.89-25.902l1.41.756.008-.015.007-.015-1.425-.726zm.413-.613l-1.002-1.247-.043.035-.041.037 1.086 1.175zm2.393-.307l-1.053 1.205.109.095.125.075.819-1.375zm.213.878l-1.391-.792-.011.018-.009.019 1.411.755zm-13.855 25.896l-1.411-.755-.007.014-.008.014 1.426.727zm-.448.618l-1.002-1.248-.043.035-.041.037 1.086 1.176zm.567-15.692l-1.386-.8-.012.021-.011.021 1.409.758zm.423-1.926l1.597-.093-.002-.035-.003-.035-1.592.163zm-.469-2.951l1.561-.35v-.003l-1.561.353zm-1.005-1.736l-1.07 1.19.017.014.017.015 1.036-1.219zm-3.698.588l-1.386-.8 1.386.8zm-.381 1.956l-1.593.149v.003l1.593-.152zm.469 2.95l-1.564.34.007.031.008.032 1.549-.402zm.969 1.742l-1.104 1.158.031.03.032.027 1.041-1.215zm13.75 12.432l-.939 1.295.017.012.018.013.904-1.32zm-2.011-3.253l-1.563.344.002.01 1.561-.354zm-.514-3.235l-1.594.149.001.007.001.007 1.592-.163zm.868-3.71l1.295.94-1.295-.94zm7.395-1.176l-.957 1.282.017.013.018.013.922-1.308zm2.012 3.253l1.563-.339-.001-.007-.002-.007-1.56.353zm.514 3.235l1.593-.147-.001-.011-1.592.158zm-.94 3.722l1.27.974.006-.009.007-.008-1.283-.957zm-2.101-1.525l-1.386-.8-.012.021-.011.02 1.409.759zm.423-1.927l1.597-.092-.002-.036-.004-.035-1.591.163zm-.469-2.95l1.561-.35-.001-.003-1.56.352zm-.97-1.742l-1.07 1.19 1.07-1.19zm-3.733.593l1.386.8-1.386-.8zm-.381 1.957l-1.593.149v.003l1.593-.152zm.469 2.95l-1.564.339.007.034.009.035 1.548-.407zm.963 1.706l-1.104 1.158.017.016.017.016 1.07-1.19zm-13.214-9.288c-1.262.2-2.122.004-2.736-.392l-1.733 2.69c1.443.93 3.152 1.151 4.972.862l-.503-3.16zm-2.699-.367c-.612-.419-1.089-1.095-1.344-2.215l-3.12.708c.395 1.74 1.251 3.186 2.657 4.148l1.807-2.641zm-1.341-2.205a25.615 25.615 0 01-.267-1.466l-3.16.502c.104.655.204 1.21.301 1.651l3.126-.687zm-.267-1.466c-.107-.674-.179-1.2-.219-1.589l-3.183.326c.048.472.13 1.064.242 1.765l3.16-.502zm-.22-1.6c-.129-1.177.102-1.99.537-2.59L123.9 12.8c-1 1.378-1.325 3.034-1.129 4.819l3.181-.35zm.537-2.59c.421-.58 1.157-1.059 2.481-1.27l-.503-3.16c-1.9.303-3.512 1.096-4.567 2.55l2.589 1.88zm2.481-1.27c1.326-.21 2.151.022 2.698.43l1.915-2.563c-1.439-1.075-3.218-1.328-5.116-1.026l.503 3.16zm2.733.456c.617.435 1.092 1.131 1.332 2.278l3.132-.655c-.369-1.77-1.211-3.245-2.62-4.238l-1.844 2.615zm1.333 2.28c.2.953.311 1.51.344 1.724l3.161-.503a51.64 51.64 0 00-.374-1.88l-3.131.66zm.344 1.724c.028.175.076.6.142 1.328l3.187-.291c-.065-.71-.121-1.241-.168-1.54l-3.161.503zm.145 1.355c.122 1.122-.118 1.896-.58 2.48l2.511 1.984c1.076-1.361 1.445-3.017 1.25-4.81l-3.181.346zm-.565 2.462c-.462.567-1.219 1.02-2.481 1.22l.503 3.16c1.819-.288 3.376-1.029 4.459-2.36l-2.481-2.02zm-3.495 14.104a.67.67 0 01.212.003.855.855 0 01.296.109l-1.637 2.75a2.414 2.414 0 001.632.298l-.503-3.16zm.63.192a.882.882 0 01.342.544l-3.16.502a2.33 2.33 0 00.938 1.544l1.88-2.59zm.342.544a1.004 1.004 0 01-.109.629l-2.782-1.582c-.243.426-.353.93-.269 1.456l3.16-.503zm-.09.594l13.89-25.902-2.82-1.512-13.89 25.901 2.82 1.513zm13.905-25.932a2.06 2.06 0 01.116-.203l.009-.014a.543.543 0 01-.052.054l-2.171-2.351c-.34.314-.581.724-.753 1.062l2.851 1.452zm-.01-.091a.604.604 0 01-.155.094c-.015.006-.001-.002.057-.011l-.503-3.16c-.434.069-.955.222-1.403.582l2.004 2.495zm-.098.083l1.173-.186-.502-3.16-1.174.186.503 3.16zm1.173-.186a.77.77 0 01-.285-.016 1.038 1.038 0 01-.452-.231l2.106-2.41c-.594-.52-1.307-.593-1.871-.504l.502 3.16zm-.503-.077a1.029 1.029 0 01-.34-.334.885.885 0 01-.129-.326l3.161-.502c-.096-.603-.421-1.21-1.054-1.588l-1.638 2.75zm-.469-.66a1.005 1.005 0 01.11-.629l2.781 1.582a2.22 2.22 0 00.27-1.455l-3.161.502zm.09-.592L130.58 35.562l2.822 1.51 13.854-25.897-2.821-1.51zm-13.87 25.924a1.3 1.3 0 01-.092.16l.004-.004a.531.531 0 01.064-.059l2.004 2.495c.408-.328.682-.767.872-1.14l-2.852-1.452zm-.108.17a.824.824 0 01.256-.17c.022-.008.004.002-.075.014l.503 3.16c.403-.064 1.007-.21 1.487-.654l-2.171-2.35zm.181-.156l-1.173.187.503 3.16 1.173-.187-.503-3.16zm-.007-11.74c1.154-.184 2.273-.718 2.888-1.863l-2.818-1.516c-.005.01-.015.03-.073.066-.07.042-.22.108-.499.152l.502 3.16zm2.865-1.822c.498-.863.692-1.822.634-2.818l-3.194.185c.026.449-.062.774-.212 1.035l2.772 1.598zm.629-2.889a49.244 49.244 0 00-.178-1.592l-3.16.502.004.03.011.086.033.292c.027.244.062.58.106 1.009l3.184-.326zm-.178-1.592a31.79 31.79 0 00-.322-1.544l-3.122.698c.171.765.259 1.194.284 1.348l3.16-.502zm-.322-1.548c-.231-1.021-.728-1.92-1.53-2.602l-2.072 2.438c.209.178.383.436.48.87l3.122-.706zm-1.496-2.573c-.942-.847-2.134-1.026-3.289-.843l.503 3.16c.505-.08.624.042.646.062l2.14-2.379zm-3.289-.843c-1.154.184-2.232.724-2.865 1.822l2.773 1.598c.015-.026.09-.18.595-.26l-.503-3.16zm-2.865 1.822c-.513.89-.684 1.883-.588 2.904l3.186-.298c-.043-.464.04-.775.175-1.008l-2.773-1.598zm-.588 2.907c.041.43.112.953.209 1.562l3.16-.502a23.215 23.215 0 01-.183-1.364l-3.186.304zm.209 1.562c.093.59.19 1.116.289 1.575l3.128-.677c-.084-.386-.17-.851-.257-1.4l-3.16.502zm.304 1.64c.249.958.704 1.818 1.414 2.496l2.209-2.315c-.207-.198-.399-.499-.526-.986l-3.097.804zm1.477 2.553c.944.81 2.125.962 3.254.783l-.502-3.16c-.53.084-.657-.042-.669-.053l-2.083 2.43zm18.406 10.335c-1.239.196-2.089-.012-2.71-.438l-1.809 2.64c1.451.994 3.179 1.25 5.021.958l-.502-3.16zm-2.675-.413c-.65-.472-1.137-1.192-1.391-2.312l-3.121.708c.396 1.742 1.25 3.19 2.633 4.194l1.879-2.59zm-1.388-2.301a25.599 25.599 0 01-.267-1.467l-3.161.503c.105.655.205 1.209.302 1.65l3.126-.686zm-.267-1.467c-.107-.673-.179-1.2-.219-1.588l-3.183.326c.048.472.13 1.063.241 1.765l3.161-.503zm-.217-1.574c-.111-1.187.128-2.013.57-2.622l-2.59-1.88c-.994 1.37-1.333 3.017-1.167 4.8l3.187-.298zm.57-2.622c.423-.583 1.152-1.057 2.444-1.263l-.502-3.16c-1.884.3-3.481 1.095-4.532 2.544l2.59 1.88zm2.444-1.263c1.327-.21 2.152.022 2.699.43l1.914-2.564c-1.438-1.074-3.218-1.327-5.115-1.026l.502 3.16zm2.734.456c.626.44 1.113 1.146 1.373 2.297l3.121-.705c-.397-1.758-1.25-3.22-2.65-4.208l-1.844 2.616zm1.37 2.283c.185.856.287 1.364.32 1.572l3.16-.502a38.907 38.907 0 00-.353-1.747l-3.127.677zm.32 1.572c.029.182.084.657.166 1.483l3.184-.316a34.66 34.66 0 00-.19-1.669l-3.16.502zm.165 1.472c.104 1.131-.14 1.962-.629 2.618l2.565 1.913c1.033-1.385 1.416-3.035 1.25-4.825l-3.186.294zm-.616 2.6c-.459.598-1.201 1.06-2.44 1.257l.502 3.16c1.842-.293 3.405-1.073 4.477-2.468l-2.539-1.949zm-2.311 2.07c1.154-.183 2.272-.718 2.888-1.863l-2.818-1.515c-.006.01-.015.03-.073.065-.07.042-.22.109-.499.153l.502 3.16zm2.865-1.821c.498-.863.692-1.822.634-2.818l-3.195.185c.027.448-.061.774-.211 1.035l2.772 1.598zm.628-2.889a47.378 47.378 0 00-.177-1.592l-3.161.502.004.03.011.085.034.292c.027.245.062.58.106 1.01l3.183-.327zm-.177-1.592a33.097 33.097 0 00-.322-1.545l-3.123.699c.171.765.26 1.194.284 1.348l3.161-.502zm-.323-1.548c-.225-1-.696-1.891-1.46-2.579l-2.14 2.38c.2.18.376.45.479.904l3.121-.705zm-1.46-2.579c-.951-.856-2.163-1.022-3.324-.837l.502 3.16c.547-.087.67.045.682.056l2.14-2.378zm-3.324-.837c-1.154.183-2.232.724-2.865 1.821l2.772 1.598c.015-.026.09-.179.595-.259l-.502-3.16zm-2.865 1.821c-.513.89-.684 1.884-.588 2.905l3.186-.298c-.044-.464.04-.775.174-1.009l-2.772-1.598zm-.588 2.908c.041.429.112.953.209 1.562l3.16-.502a22.512 22.512 0 01-.184-1.365l-3.185.305zm.209 1.562c.093.59.189 1.115.289 1.575l3.127-.677a26.58 26.58 0 01-.256-1.4l-3.16.502zm.305 1.644c.249.944.705 1.786 1.407 2.456l2.209-2.315c-.215-.206-.401-.5-.521-.956l-3.095.815zm1.441 2.488c.942.847 2.135 1.027 3.289.843l-.502-3.16c-.505.08-.624-.042-.646-.062l-2.141 2.379zM14.623 227.969l-.33.944.073.026.075.014.182-.984zm-1.282-2.211l.967.257-.967-.257zm10.37-6.013l-.33.944.073.025.076.014.182-.983zm1.283 2.211l.966.257-.966-.257zm-10.235 5.028c-.016.01-.015.006.002.003.008-.002.016-.002.025-.002l.02.001-.365 1.967c.473.087.926-.009 1.322-.239l-1.004-1.73zm.195.042c.003.001.01.003.017.008a.118.118 0 01.021.014c.013.011.012.015.003-.001l-1.73 1.003c.229.395.574.704 1.028.863l.66-1.887zm.04.021l-.686-1.184-1.73 1.004.686 1.183 1.73-1.003zm-.686-1.184c-.01-.017 0-.007.006.029a.297.297 0 01-.006.123l-1.933-.514c-.133.499-.025.973.203 1.366l1.73-1.004zm0 .152a.155.155 0 01-.027.049.126.126 0 01-.035.034l-1.003-1.73a1.832 1.832 0 00-.868 1.133l1.933.514zm-.062.083l9.343-5.417-1.003-1.73-9.343 5.417 1.003 1.73zm9.343-5.417c.002-.001-.026.015-.077.02a.297.297 0 01-.13-.012l.66-1.888a1.72 1.72 0 00-1.456.15l1.003 1.73zm-.06.047a.31.31 0 01-.119-.054c-.041-.03-.057-.057-.056-.056l1.73-1.003a1.717 1.717 0 00-1.19-.853l-.364 1.966zm-.175-.11l.686 1.184 1.73-1.003-.686-1.184-1.73 1.003zm.686 1.184c0 .001-.01-.017-.013-.048a.16.16 0 010-.055l1.933.514c.13-.489.062-.98-.19-1.414l-1.73 1.003zm-.012-.103a.3.3 0 01.056-.11c.023-.028.036-.032.018-.022l1.004 1.73c.393-.228.722-.585.854-1.084l-1.932-.514zm.075-.132l-9.344 5.417 1.004 1.73 9.343-5.417-1.004-1.73zm14.839 3.038l-.33.944.072.025.076.014.182-.983zm-10.606-17.861l.865-.502-1.02-1.759-.77 1.882.925.379zm-2.859 6.984l-.925-.379-.01.024-.009.024.944.331zm-1.069.453l-.369.929.007.003.362-.932zm-1.405-.558l-.413.911.022.009.022.009.369-.929zm-.44-1.118l.907.421.01-.021.008-.021-.925-.379zm3.755-9.169l-.888-.461-.02.04-.017.042.925.379zm2.896-1.68l-.33.944.073.026.075.014.182-.984zm12.406 21.396l.967.257-.967-.257zm-2.542.568c-.016.009-.015.005.002.002a.2.2 0 01.025-.002.08.08 0 01.02.002l-.365 1.966c.473.088.926-.009 1.321-.238l-1.003-1.73zm.194.041a.116.116 0 01.039.023c.013.011.012.015.002-.002l-1.73 1.003c.23.396.575.705 1.029.864l.66-1.888zm.041.021l-10.112-17.44-1.73 1.003 10.112 17.44 1.73-1.003zM27.41 206.365l-2.858 6.984 1.85.757 2.86-6.984-1.852-.757zm-2.877 7.032c-.005.016-.004.006.013-.015a.266.266 0 01.07-.062l1.004 1.73c.404-.234.662-.594.801-.992l-1.888-.661zm.084-.077a.46.46 0 01.107-.044.341.341 0 01.083-.011c.034.001.026.008-.036-.016l-.725 1.864c.445.173 1.027.255 1.574-.063l-1.003-1.73zm.16-.069l-1.405-.558-.738 1.859 1.405.558.738-1.859zm-1.362-.539c-.023-.011-.022-.014-.01-.003a.268.268 0 01.054.066l-1.73 1.004c.21.363.527.604.861.755l.825-1.822zm.044.063c0-.001.016.029.018.081.002.051-.011.078-.007.07l-1.814-.842a1.791 1.791 0 00.073 1.695l1.73-1.004zm.029.109l3.755-9.169-1.85-.758-3.756 9.169 1.851.758zm3.718-9.088a.719.719 0 01.297-.283l-1.003-1.73c-.45.262-.825.622-1.07 1.092l1.776.921zm.297-.283l1.588-.92-1.003-1.731-1.588.921 1.003 1.73zm1.588-.92c.002-.001-.025.014-.077.02a.295.295 0 01-.13-.013l.66-1.887a1.72 1.72 0 00-1.456.149l1.003 1.731zm-.059.047a.31.31 0 01-.12-.054c-.041-.031-.057-.058-.056-.056l1.73-1.003a1.721 1.721 0 00-1.19-.854l-.364 1.967zm-.176-.11l11.81 20.368 1.73-1.004-11.81-20.367-1.73 1.003zm11.81 20.368s-.009-.017-.013-.048a.16.16 0 010-.055l1.934.514c.13-.489.061-.98-.19-1.415l-1.73 1.004zm-.012-.103a.293.293 0 01.056-.11c.023-.028.036-.033.019-.022l1.003 1.73c.393-.228.722-.586.855-1.084l-1.933-.514zm.075-.132l-1.65.957 1.002 1.73 1.651-.957-1.003-1.73zm6.389-5.254l.362-.932-.362.932zm-5.55-4.98l.847-.529-.002-.004-.846.533zm-3.197-5.512l.882-.47-.005-.01-.877.48zm-1.528-7.229l.987.157.001-.006-.988-.151zm11.803-6.844l-.36.933.005.002.355-.935zm5.514 4.918l-.852.523.006.009.846-.532zm3.197 5.512l-.883.469.002.004.88-.473zm1.564 7.291l-.989-.149.99.149zm-3.5-.509l-.99-.137-.002.013.993.124zm-1.269-5.132l-.882.472.006.011.876-.483zm-2.997-5.17l-.854.521.004.006.004.007.846-.534zm-3.792-3.669l.394-.919-.394.919zm-7.101 4.118l-.992-.127-.001.012.993.115zm1.3 5.113l-.876.483.005.008.871-.491zm1.45 2.572l-.871.491.006.011.006.01.86-.512zm1.548 2.598l-.859.512.005.008.854-.52zm3.792 3.669l-.385.923.011.004.374-.927zm5.505 1.312c-2.512 1.456-4.601 1.7-6.377 1.01l-.724 1.864c2.521.98 5.26.505 8.104-1.144l-1.003-1.73zm-6.377 1.01c-1.899-.738-3.596-2.225-5.065-4.577l-1.696 1.059c1.635 2.618 3.638 4.45 6.037 5.382l.724-1.864zm-5.067-4.581a94.438 94.438 0 01-1.583-2.66l-1.73 1.004a98.339 98.339 0 001.621 2.723l1.692-1.067zm-1.583-2.66a101.864 101.864 0 01-1.577-2.789l-1.764.941c.325.61.864 1.563 1.61 2.852l1.731-1.004zm-1.582-2.799c-1.302-2.381-1.739-4.567-1.418-6.592l-1.975-.313c-.406 2.558.176 5.191 1.639 7.865l1.754-.96zm-1.417-6.598c.293-1.924 1.543-3.625 4.027-5.065l-1.003-1.731c-2.831 1.642-4.59 3.795-5 6.495l1.976.301zm4.027-5.065c2.507-1.454 4.614-1.698 6.427-.997l.722-1.865c-2.55-.986-5.303-.521-8.152 1.131l1.003 1.731zm6.433-.995c1.917.727 3.598 2.192 5.017 4.506l1.705-1.046c-1.594-2.598-3.59-4.411-6.012-5.33l-.71 1.87zm5.023 4.515a94.54 94.54 0 011.669 2.736l1.73-1.003a96.845 96.845 0 00-1.706-2.798l-1.693 1.065zm1.669 2.736c.388.67.885 1.573 1.49 2.713l1.767-.938a88.175 88.175 0 00-1.527-2.778l-1.73 1.003zm1.493 2.717c1.311 2.443 1.76 4.655 1.456 6.669l1.978.298c.383-2.545-.212-5.194-1.672-7.913l-1.762.946zm1.456 6.669c-.283 1.882-1.54 3.581-4.075 5.051l1.003 1.73c2.863-1.66 4.647-3.806 5.05-6.483l-1.978-.298zm-4.625 4.102c1.768-1.025 2.873-2.471 3.107-4.338l-1.985-.248c-.14 1.123-.78 2.076-2.125 2.856l1.003 1.73zm3.105-4.326c.248-1.796-.27-3.728-1.384-5.75l-1.752.965c.994 1.804 1.323 3.293 1.155 4.512l1.981.273zm-1.378-5.739a99.014 99.014 0 00-1.471-2.683l-1.73 1.004c.303.523.781 1.394 1.437 2.622l1.764-.943zm-1.471-2.683A88.578 88.578 0 0052 199.221l-1.691 1.067a85.054 85.054 0 011.524 2.486l1.73-1.004zm-1.555-2.536c-1.19-1.951-2.593-3.357-4.251-4.068l-.788 1.839c1.147.491 2.272 1.532 3.332 3.27l1.707-1.041zm-4.251-4.068c-1.752-.751-3.576-.514-5.367.525l1.003 1.73c1.365-.791 2.521-.868 3.576-.416l.788-1.839zm-5.367.525c-1.776 1.029-2.878 2.493-3.12 4.385l1.984.254c.15-1.165.8-2.133 2.139-2.909l-1.003-1.73zm-3.121 4.397c-.207 1.792.316 3.709 1.417 5.71l1.752-.964c-.982-1.784-1.326-3.276-1.183-4.517l-1.986-.229zm1.422 5.719l1.45 2.572 1.742-.982-1.45-2.572-1.742.982zm1.462 2.593l1.548 2.598 1.718-1.024-1.548-2.598-1.718 1.024zm1.553 2.606c1.2 1.968 2.605 3.381 4.26 4.072l.771-1.846c-1.126-.47-2.248-1.504-3.323-3.267l-1.708 1.041zm4.272 4.076c1.752.706 3.56.462 5.329-.564l-1.003-1.73c-1.346.78-2.506.871-3.578.439l-.748 1.855zm11.983-18.353l-.23.973.013.003.014.003.203-.979zm-3.01-2.249l-.835.551.004.006.83-.557zm-1.644-2.835l.891-.452-.003-.007-.888.459zm-.555-3.756l-.967-.257.967.257zm6.509-3.774l-.27.963.013.004.013.003.244-.97zm3.015 2.33l-.84.543.001.001.84-.544zm1.643 2.834l-.896.443.004.008.004.007.888-.458zm.457 3.73l.95.31.003-.007.002-.007-.955-.296zm.535 15.42l-.257.966.044.012.045.007.168-.985zm-.532-.774l.99.149.001-.012.002-.013-.993-.124zm3.647-29.164l.993.124v-.01l.002-.011-.995-.103zm.165-.72l-.864-.502-.018.03-.015.031.897.441zm2.123-1.147l-.343.939.085.031.09.015.168-.985zm.514.742l-.989-.149-.002.013-.002.013.993.123zm-3.616 29.146l-.992-.123-.002.01v.01l.994.103zm-.196.738l-.865-.502-.017.03-.015.03.897.442zm-5.113-14.846l-.988-.155-.002.015-.002.015.992.125zm-.298-1.95l.91-.413-.009-.02-.01-.019-.891.452zm-1.499-2.585l.832-.554-.001-.002-.831.556zm-1.562-1.258l-.357.934.013.005.014.005.33-.944zm-3.239 1.878l-.988-.154.988.154zm.348 1.963l-.896.445v.001l.896-.446zm1.498 2.585l-.836.549.012.017.012.016.812-.582zm1.531 1.276l-.384.923.025.011.025.009.334-.943zm17.3 6.656l-.256.966.013.004.013.003.23-.973zm-3.046-2.312l-.834.552.004.005.83-.557zm-1.643-2.834l-.896.445.004.008.892-.453zm-.524-3.774l.966.257-.966-.257zm6.478-3.756l-.27.962.013.004.013.003.244-.969zm3.046 2.311l.836-.549-.005-.007-.83.556zm1.643 2.834l.897-.444-.004-.006-.892.45zm.462 3.811l.96.283.003-.013-.963-.27zm-2.51-.668l-.987-.154-.002.014-.002.015.992.125zm-.297-1.949l.91-.413-.009-.02-.01-.02-.891.453zm-1.499-2.585l.832-.555-.001-.001-.831.556zm-1.53-1.276l-.358.934.357-.934zm-3.27 1.896l.987.154-.988-.154zm.346 1.962l-.895.445v.002l.895-.447zm1.5 2.585l-.837.549.013.018.012.018.811-.585zm1.512 1.245l-.384.924.013.005.014.006.357-.935zm-15.37-3.396c-1.196.694-2.22.873-3.116.687l-.407 1.958c1.5.311 3.025-.044 4.527-.915l-1.003-1.73zm-3.09.693c-.896-.212-1.703-.78-2.41-1.834l-1.66 1.115c.928 1.383 2.128 2.315 3.61 2.665l.46-1.946zm-2.406-1.828c-.21-.318-.474-.75-.794-1.302l-1.73 1.003c.33.569.615 1.038.856 1.402l1.668-1.103zm-.794-1.302a31.384 31.384 0 01-.792-1.433l-1.783.905c.208.409.49.921.844 1.531l1.73-1.003zm-.795-1.44c-.596-1.153-.714-2.149-.477-3.04l-1.933-.514c-.391 1.471-.138 2.979.634 4.473l1.776-.919zm-.477-3.04c.236-.887.883-1.713 2.137-2.44l-1.003-1.73c-1.57.91-2.657 2.116-3.067 3.656l1.933.514zm2.137-2.44c1.256-.728 2.277-.869 3.135-.628l.54-1.926c-1.527-.429-3.11-.086-4.678.824l1.003 1.73zm3.162-.621c.908.228 1.718.819 2.42 1.903l1.679-1.086c-.917-1.418-2.117-2.381-3.612-2.757l-.487 1.94zm2.42 1.904c.527.813.84 1.307.957 1.51l1.73-1.004c-.147-.254-.49-.795-1.009-1.594l-1.678 1.088zm.957 1.51c.101.174.307.571.629 1.223l1.793-.886a28.093 28.093 0 00-.692-1.341l-1.73 1.004zm.637 1.238c.575 1.115.666 2.087.39 2.975l1.91.593c.46-1.479.246-2.995-.523-4.485l-1.777.917zm.394 2.962c-.284.87-.947 1.67-2.144 2.364l1.003 1.73c1.502-.871 2.568-2.018 3.043-3.474l-1.902-.62zm1.542 14.75c-.013.007-.006.001.02-.005a.287.287 0 01.093-.001l-.337 1.971c.45.077.87-.028 1.227-.235l-1.003-1.73zm.201.013a.286.286 0 01.15.106l-1.73 1.004c.233.4.596.698 1.066.823l.514-1.933zm.15.106a.406.406 0 01.05.236l-1.977-.298a1.62 1.62 0 00.197 1.066l1.73-1.004zm.054.211l3.647-29.164-1.985-.248-3.647 29.164 1.985.248zm3.649-29.185c.014-.134.03-.233.046-.303.017-.073.029-.092.022-.078l-1.795-.883c-.156.318-.225.701-.262 1.058l1.989.206zm.035-.32c-.013.022-.017.02.007-.002a.916.916 0 01.15-.103l-1.004-1.73c-.331.192-.665.456-.882.83l1.73 1.005zm.157-.105l1.027-.596-1.003-1.73-1.028.596 1.004 1.73zm1.027-.596c.02-.011-.001.005-.057.013a.443.443 0 01-.212-.023l.687-1.878c-.53-.194-1.034-.067-1.421.158l1.003 1.73zm-.094.036a.43.43 0 01-.181-.078.28.28 0 01-.076-.078l1.73-1.003c-.232-.4-.613-.722-1.136-.812l-.337 1.971zm-.257-.156a.397.397 0 01-.05-.236l1.978.298a1.62 1.62 0 00-.198-1.065l-1.73 1.003zm-.054-.21l-3.615 29.146 1.984.246 3.616-29.146-1.985-.246zm-3.618 29.166c-.013.124-.03.213-.046.274-.016.062-.028.078-.02.065l1.73 1.004c.2-.346.286-.755.326-1.137l-1.99-.206zm-.098.399a.399.399 0 01.041-.067c.008-.01.01-.009 0-.001a1.067 1.067 0 01-.165.113l1.003 1.73c.322-.187.706-.466.915-.891l-1.794-.884zm-.124.045l-1.028.596 1.003 1.73 1.028-.596-1.003-1.73zm-4.83-11.991c.911-.529 1.598-1.291 1.73-2.333l-1.984-.25c-.027.215-.167.515-.75.853l1.003 1.73zm1.726-2.304c.134-.855-.006-1.701-.376-2.517l-1.82.826c.227.503.286.956.22 1.382l1.976.309zm-.395-2.556a46.38 46.38 0 00-.722-1.393l-1.73 1.003c.054.094.27.508.67 1.295l1.782-.905zm-.722-1.393c-.127-.22-.414-.661-.836-1.294l-1.664 1.109c.432.648.68 1.034.77 1.188l1.73-1.003zm-.837-1.296c-.52-.776-1.207-1.346-2.063-1.646l-.66 1.888c.397.139.751.408 1.061.871l1.662-1.113zm-2.036-1.636c-.967-.369-1.953-.17-2.857.354l1.003 1.73c.549-.318.896-.309 1.14-.216l.714-1.868zm-2.857.354c-.905.525-1.567 1.281-1.727 2.304l1.976.309c.04-.259.205-.564.754-.883l-1.003-1.73zm-1.727 2.304c-.137.875.03 1.737.44 2.562l1.791-.89c-.254-.511-.318-.957-.255-1.363l-1.976-.309zm.44 2.563c.186.371.433.822.74 1.35l1.73-1.003c-.296-.51-.52-.922-.68-1.24l-1.79.893zm.74 1.35c.295.51.568.956.818 1.338l1.672-1.098a26.677 26.677 0 01-.76-1.243l-1.73 1.003zm.842 1.371c.524.732 1.173 1.29 1.959 1.617l.768-1.846c-.384-.16-.755-.452-1.102-.936l-1.625 1.165zm2.009 1.637c.955.338 1.926.122 2.816-.394l-1.003-1.73c-.563.326-.912.321-1.145.239l-.668 1.885zm20.99 4.109c-1.183.686-2.208.848-3.124.631l-.462 1.946c1.528.362 3.075.031 4.59-.847l-1.003-1.73zm-3.098.637c-.94-.25-1.767-.849-2.474-1.902l-1.66 1.114c.928 1.384 2.133 2.326 3.62 2.721l.514-1.933zm-2.47-1.897c-.21-.318-.474-.75-.794-1.302l-1.73 1.003c.33.569.615 1.039.856 1.403l1.668-1.104zm-.794-1.302a30.343 30.343 0 01-.792-1.433l-1.783.906c.208.409.49.921.844 1.53l1.73-1.003zm-.788-1.425c-.58-1.168-.691-2.175-.453-3.072l-1.933-.514c-.39 1.464-.151 2.973.595 4.476l1.791-.89zm-.453-3.072c.237-.891.877-1.71 2.106-2.423l-1.003-1.73c-1.553.901-2.627 2.102-3.036 3.639l1.933.514zm2.106-2.423c1.256-.728 2.277-.869 3.135-.628l.54-1.925c-1.527-.429-3.11-.086-4.678.823l1.003 1.73zm3.162-.621c.914.23 1.738.821 2.46 1.898l1.661-1.112c-.938-1.401-2.145-2.351-3.634-2.725l-.487 1.939zm2.454 1.891c.479.729.766 1.181.882 1.38l1.73-1.003a39.91 39.91 0 00-.94-1.475l-1.672 1.098zm.882 1.38c.103.178.333.618.704 1.355l1.786-.9a35.97 35.97 0 00-.76-1.458l-1.73 1.003zm.701 1.349c.56 1.129.662 2.145.395 3.097l1.926.54c.42-1.5.215-3.025-.528-4.525l-1.793.888zm.4 3.084c-.268.903-.917 1.712-2.101 2.399l1.003 1.73c1.515-.878 2.57-2.057 3.015-3.563l-1.918-.566zm-2.29 2.073c.912-.528 1.6-1.291 1.731-2.332l-1.984-.251c-.027.216-.167.515-.75.853l1.003 1.73zm1.727-2.303c.134-.855-.006-1.702-.376-2.517l-1.82.826c.227.503.287.956.22 1.382l1.976.309zm-.395-2.557a46.38 46.38 0 00-.722-1.393l-1.73 1.003c.054.094.27.509.67 1.296l1.782-.906zm-.722-1.393a32.552 32.552 0 00-.836-1.294l-1.664 1.11c.432.648.68 1.033.77 1.187l1.73-1.003zm-.837-1.295c-.512-.765-1.178-1.339-2.005-1.655l-.714 1.869c.385.147.74.424 1.057.898l1.662-1.112zm-2.005-1.655c-.975-.372-1.973-.158-2.888.373l1.003 1.73c.58-.336.934-.325 1.171-.234l.714-1.869zm-2.888.373c-.905.524-1.567 1.281-1.727 2.303l1.976.309c.04-.259.205-.564.754-.882l-1.003-1.73zm-1.727 2.303c-.137.875.03 1.738.44 2.562l1.791-.89c-.254-.511-.318-.956-.255-1.363l-1.976-.309zm.44 2.564c.186.37.433.822.74 1.35l1.73-1.003c-.296-.51-.52-.922-.68-1.24l-1.79.893zm.74 1.35c.295.509.568.956.818 1.337l1.672-1.098a26.59 26.59 0 01-.76-1.242l-1.73 1.003zm.843 1.373c.516.715 1.16 1.26 1.94 1.584l.768-1.847c-.39-.163-.755-.448-1.086-.907l-1.622 1.17zm1.967 1.595c.967.369 1.953.17 2.857-.355l-1.003-1.73c-.549.319-.896.31-1.14.216l-.714 1.869zM23.306 93.549a1.287 1.287 0 01-.593-.704c-.055-.308.004-.61.176-.903l.983-1.67c.172-.294.398-.477.677-.55a1.18 1.18 0 01.929.132l13.194 7.757c.293.173.467.413.522.722.102.296.067.591-.106.885l-.982 1.671a1.179 1.179 0 01-.748.566c-.279.073-.565.023-.858-.149l-13.194-7.757zm12.034 22.343a1.288 1.288 0 01-.593-.703c-.055-.309.004-.61.176-.903l.827-1.407c.397-.675 1.143-1.104 2.238-1.289l14.805-3.842c3.36-.549 5.81-1.16 7.35-1.833 1.557-.702 2.724-1.713 3.5-3.033 1-1.7 1.3-3.319.901-4.855-.37-1.52-1.463-2.813-3.28-3.882-1.701-1-3.366-1.288-4.996-.865-1.612.394-3.027 1.357-4.244 2.89-.265.318-.567.495-.905.533a1.37 1.37 0 01-.833-.194L48 95.166c-.264-.155-.44-.358-.53-.608a.979.979 0 01.098-.77c.99-1.55 2.302-2.81 3.938-3.78 1.654-1.001 3.51-1.508 5.57-1.52 2.105-.025 4.242.6 6.412 1.876 3.313 1.948 5.297 4.278 5.95 6.99.702 2.701.276 5.37-1.275 8.009-1.086 1.847-2.538 3.242-4.355 4.186-1.77.932-4.123 1.679-7.058 2.242l-13.486 3.611 13.721 8.068c.323.189.512.438.567.747.102.297.066.591-.106.885l-1.06 1.803a1.179 1.179 0 01-.747.566 1.285 1.285 0 01-.903-.175L35.34 115.892zm35.493 21.459c-2.317-1.362-4.11-2.909-5.38-4.642-1.222-1.745-1.92-3.477-2.093-5.196-.143-1.702.143-3.23.86-4.584.156-.264.364-.417.626-.46.28-.073.551-.032.815.124l2.155 1.267c.616.362.837.925.663 1.691-.481 1.69-.272 3.214.627 4.571.916 1.327 2.224 2.491 3.924 3.491 2.082 1.223 4.023 1.714 5.823 1.47 1.818-.273 3.27-1.333 4.356-3.18 2.085-3.548.973-6.588-3.337-9.122l-4.178-2.457a1.287 1.287 0 01-.592-.703c-.056-.309.003-.61.175-.903l.698-1.187c.242-.411.636-.712 1.182-.903l14.014-4.308-12.974-7.627a1.289 1.289 0 01-.593-.704 1.288 1.288 0 01.176-.903l.983-1.671c.172-.293.406-.491.703-.592a1.18 1.18 0 01.929.131l17.547 10.317c.323.19.512.439.567.747.102.297.058.606-.132.929l-.93 1.583c-.207.352-.567.594-1.079.727l-14.047 4.466.678.457c2.939 1.847 4.842 4.011 5.71 6.494.868 2.483.475 5.132-1.18 7.947-1.12 1.905-2.578 3.277-4.373 4.116-1.795.838-3.767 1.139-5.916.902-2.131-.267-4.267-1.03-6.407-2.288zm31.077-2.975c-1.905-1.12-3.122-2.506-3.65-4.158-.482-1.664-.255-3.425.679-5.282.264-.516.628-1.17 1.093-1.961.5-.851.92-1.531 1.26-2.041 1.156-1.767 2.573-2.867 4.249-3.302 1.722-.447 3.581-.085 5.574 1.088 1.994 1.172 3.2 2.611 3.617 4.316.465 1.693.206 3.475-.774 5.344-.631 1.207-1.041 1.972-1.231 2.295-.172.293-.546.862-1.122 1.707-1.14 1.737-2.568 2.791-4.286 3.162-1.7.342-3.503-.047-5.409-1.168zm-12.718 13.177c-.263-.155-.44-.358-.53-.608a1.036 1.036 0 01.124-.814.88.88 0 01.46-.381l38.533-15.813c.424-.185.758-.284 1.003-.298.274.003.587.108.939.315l1.451.853c.294.173.462.39.505.652.09.25.057.507-.098.771a.877.877 0 01-.46.38L92.63 148.45c-.424.184-.773.275-1.047.272-.245.014-.558-.092-.94-.316l-1.45-.853zm14.322-15.903c1.055.62 1.998.76 2.829.42.861-.322 1.594-.897 2.199-1.725a70.638 70.638 0 001.174-1.796c.155-.264.479-.882.972-1.855.475-.943.63-1.878.465-2.804-.137-.908-.718-1.664-1.744-2.268-1.026-.603-1.97-.743-2.83-.421-.861.323-1.587.922-2.18 1.796a34.94 34.94 0 00-1.104 1.777 39.147 39.147 0 00-1.042 1.873c-.447.961-.616 1.887-.509 2.778.153.88.743 1.621 1.77 2.225zm5.666 28.009c-1.906-1.12-3.106-2.536-3.599-4.246-.447-1.723-.204-3.513.731-5.37.263-.516.628-1.17 1.093-1.961.5-.851.92-1.531 1.259-2.042 1.186-1.748 2.617-2.84 4.293-3.275 1.723-.447 3.567-.093 5.531 1.062 1.994 1.172 3.199 2.61 3.617 4.316.464 1.693.221 3.483-.731 5.37-.561 1.09-.937 1.796-1.127 2.119-.172.293-.581.921-1.225 1.883-1.169 1.72-2.63 2.794-4.382 3.224-1.734.4-3.554.04-5.46-1.08zm1.706-2.903c1.056.621 1.999.761 2.83.421.861-.322 1.593-.898 2.198-1.725.68-1.021 1.071-1.62 1.174-1.796.156-.264.48-.882.973-1.855.475-.943.645-1.869.508-2.778-.136-.909-.732-1.673-1.787-2.294-1.027-.603-1.97-.743-2.83-.421-.861.323-1.588.921-2.181 1.796a34.94 34.94 0 00-1.104 1.777 40.046 40.046 0 00-1.042 1.873c-.429.931-.59 1.843-.483 2.734.137.909.718 1.665 1.744 2.268zM73.858 401.544a.912.912 0 01-.648.045.91.91 0 01-.441-.476l-.544-1.255c-.095-.221-.105-.425-.03-.615a.831.831 0 01.461-.474l9.911-4.291a.718.718 0 01.629.002.721.721 0 01.46.429l.543 1.255c.096.22.1.441.012.662-.075.189-.222.332-.442.427l-9.911 4.291zm24.545-.506a.902.902 0 01-.648.045.906.906 0 01-.441-.476l-8.01-18.5-3.653 6.603a.819.819 0 01-.41.413c-.198.085-.433.056-.704-.088l-1.331-.718a.862.862 0 01-.366-.391.793.793 0 01.059-.771l4.799-8.668c.175-.259.428-.46.759-.603l1.684-.729a.718.718 0 01.63.002.72.72 0 01.46.428l9.354 21.606a.833.833 0 01.011.662c-.074.19-.222.332-.442.427l-1.751.758zm7.391-3.2a.9.9 0 01-.647.045.91.91 0 01-.442-.476l-.457-1.057c-.22-.506-.154-1.11.196-1.811l3.972-10.036c1.085-2.144 1.757-3.794 2.014-4.952.248-1.18.157-2.265-.272-3.256-.553-1.277-1.35-2.122-2.392-2.534-1.019-.422-2.212-.337-3.577.254-1.278.553-2.135 1.382-2.572 2.486-.447 1.083-.486 2.29-.119 3.622.07.283.046.529-.073.738a.97.97 0 01-.457.394l-1.718.743a.814.814 0 01-.567.05.692.692 0 01-.398-.377 8.222 8.222 0 01-.516-3.818c.118-1.358.602-2.627 1.452-3.805.862-1.211 2.108-2.169 3.738-2.874 2.489-1.078 4.642-1.238 6.46-.483 1.83.725 3.175 2.078 4.033 4.06.601 1.388.792 2.796.573 4.224-.206 1.397-.759 3.049-1.66 4.956l-3.553 9.188 10.307-4.463c.242-.105.463-.108.662-.012a.726.726 0 01.46.429l.586 1.354c.096.221.1.441.012.662a.91.91 0 01-.476.442l-14.569 6.307zm18.396-21.655c-1.432.62-2.728.737-3.89.35-1.148-.418-2.057-1.28-2.727-2.585a28.871 28.871 0 01-.663-1.439 32.823 32.823 0 01-.639-1.567c-.525-1.395-.563-2.66-.113-3.796.462-1.168 1.442-2.076 2.94-2.724 1.497-.648 2.819-.737 3.965-.265 1.158.44 2.066 1.328 2.723 2.665.425.862.69 1.414.795 1.657.096.22.264.67.506 1.35.516 1.372.522 2.624.019 3.758-.513 1.111-1.485 1.976-2.916 2.596zm2.216 12.731a.813.813 0 01-.567.05.736.736 0 01-.413-.41.624.624 0 01-.025-.421l7.023-28.539c.072-.319.154-.551.248-.696.116-.155.307-.289.571-.404l1.09-.472c.22-.095.414-.101.581-.016.18.053.313.178.399.376a.625.625 0 01.025.421l-6.99 28.525c-.071.319-.165.556-.281.71-.094.146-.284.28-.571.404l-1.09.472zm-3.103-14.779c.793-.343 1.265-.823 1.417-1.438.174-.624.152-1.281-.068-1.971-.3-.812-.478-1.284-.535-1.416-.086-.198-.303-.64-.653-1.326-.339-.663-.807-1.141-1.404-1.432-.575-.3-1.247-.283-2.018.05-.771.334-1.244.813-1.418 1.438-.174.625-.135 1.288.116 1.99.131.362.315.818.554 1.368.228.529.44.987.633 1.374.362.654.819 1.136 1.372 1.446.565.278 1.233.251 2.004-.083zm18.32 8.427c-1.432.62-2.738.714-3.918.284-1.168-.462-2.086-1.346-2.756-2.652a27.318 27.318 0 01-.662-1.439 31.966 31.966 0 01-.64-1.567c-.503-1.404-.529-2.673-.08-3.81.462-1.167 1.431-2.071 2.907-2.709 1.497-.649 2.819-.737 3.965-.266 1.158.44 2.077 1.324 2.756 2.652.387.773.633 1.281.738 1.524.096.22.283.714.564 1.482.493 1.382.498 2.661.014 3.838-.494 1.155-1.457 2.043-2.888 2.663zm-.944-2.181c.793-.343 1.265-.822 1.417-1.437.175-.625.152-1.282-.068-1.971-.3-.812-.478-1.284-.535-1.416-.086-.199-.303-.64-.652-1.326-.34-.664-.797-1.146-1.372-1.446-.575-.301-1.258-.279-2.051.064-.771.334-1.244.813-1.418 1.437-.174.625-.135 1.288.116 1.99.131.362.315.818.554 1.369.229.529.44.986.633 1.373.353.632.805 1.103 1.358 1.413.574.301 1.247.284 2.018-.05zM68.86 258.516a1.127 1.127 0 01-.664-.455 1.124 1.124 0 01-.062-.801l.439-1.638c.077-.287.224-.493.443-.62.255-.147.526-.182.813-.105l12.925 3.463c.287.077.49.239.608.486a.895.895 0 01.117.771l-.439 1.637a1.031 1.031 0 01-.498.651c-.218.126-.471.151-.758.074l-12.925-3.463zm25.722 19.267c-2.268-.608-4.14-1.494-5.613-2.658-1.437-1.186-2.429-2.483-2.975-3.891-.517-1.401-.631-2.755-.343-4.063.07-.258.21-.436.42-.534a.91.91 0 01.716-.085l2.111.565c.603.162.92.586.952 1.271-.011 1.537.52 2.772 1.593 3.706 1.081.905 2.455 1.581 4.12 2.027 2.04.547 3.79.508 5.25-.117 1.468-.653 2.444-1.885 2.929-3.694.931-3.475-.714-5.779-4.936-6.91l-4.093-1.096a1.127 1.127 0 01-.663-.455 1.126 1.126 0 01-.062-.802l.311-1.163c.108-.402.37-.748.786-1.036l10.805-6.894-12.71-3.405a1.127 1.127 0 01-.662-.455 1.126 1.126 0 01-.063-.802l.44-1.637c.076-.287.228-.508.454-.663.255-.147.526-.182.813-.105l17.19 4.606c.315.084.533.25.651.497.155.227.19.498.105.814l-.415 1.55c-.092.345-.339.633-.74.864l-10.796 7.035.678.228c2.906.871 5.014 2.251 6.324 4.142 1.31 1.89 1.595 4.213.856 6.97-.5 1.867-1.409 3.363-2.726 4.488-1.317 1.124-2.908 1.837-4.774 2.137-1.859.272-3.836.127-5.933-.435zm26.693 7.152c-3.705-.992-6.131-2.797-7.277-5.412-1.146-2.616-1.307-5.692-.483-9.226.179-.783.5-2.037.961-3.76.478-1.781.838-3.069 1.082-3.866 1.01-3.423 2.68-5.977 5.009-7.662 2.337-1.713 5.343-2.077 9.019-1.092 3.705.993 6.141 2.815 7.309 5.467 1.174 2.624 1.343 5.67.506 9.14a117.557 117.557 0 01-.953 3.9c-.254.948-.617 2.19-1.09 3.725-1.054 3.473-2.731 6.056-5.032 7.749-2.3 1.692-5.317 2.038-9.051 1.037zm.993-3.705c2.154.578 3.969.294 5.445-.849 1.505-1.136 2.636-3.003 3.394-5.601.504-1.651.856-2.849 1.056-3.596.215-.804.502-1.99.86-3.556.636-2.6.604-4.779-.095-6.536-.699-1.757-2.14-2.928-4.323-3.513-2.154-.577-3.987-.284-5.5.881-1.484 1.172-2.601 3.043-3.351 5.613l-.989 3.521-.927 3.63c-.643 2.629-.611 4.808.096 6.536.735 1.737 2.18 2.893 4.334 3.47zm25.156-5.865c-1.867-.5-3.216-1.385-4.045-2.654-.794-1.289-1.013-2.826-.658-4.609.102-.496.257-1.131.464-1.907.224-.833.419-1.504.586-2.013.563-1.758 1.5-3.015 2.811-3.772 1.348-.778 2.998-.905 4.951-.382 1.953.524 3.304 1.455 4.053 2.795.786 1.319.983 2.88.592 4.684a60.82 60.82 0 01-.502 2.22 34 34 0 01-.548 1.7c-.556 1.729-1.514 2.95-2.875 3.662-1.353.685-2.963.776-4.829.276zm-7.648 14.066a1.006 1.006 0 01-.588-.389.904.904 0 01-.086-.715.767.767 0 01.3-.428l28.785-22.3c.314-.254.573-.416.776-.485.232-.061.52-.045.865.047l1.422.381c.287.077.479.221.577.432.134.19.166.414.097.672a.769.769 0 01-.3.428l-28.742 22.312c-.315.254-.588.412-.82.473-.203.069-.491.053-.864-.047l-1.422-.381zm8.363-16.737c1.034.277 1.862.176 2.483-.304.65-.473 1.133-1.128 1.45-1.967.335-1.018.525-1.614.571-1.786.07-.258.199-.855.387-1.789.182-.906.094-1.73-.261-2.471-.327-.734-.993-1.236-1.998-1.505-1.005-.27-1.833-.168-2.482.304-.65.472-1.123 1.146-1.419 2.021a30.769 30.769 0 00-.517 1.755 33.959 33.959 0 00-.441 1.821c-.153.913-.08 1.733.218 2.459.334.706 1.004 1.193 2.009 1.462zm11.299 22.282c-1.867-.5-3.207-1.413-4.022-2.739-.778-1.348-.989-2.913-.635-4.696.102-.496.257-1.131.465-1.907.223-.833.418-1.504.586-2.013.592-1.75 1.543-3.003 2.854-3.76 1.348-.778 2.983-.909 4.908-.394 1.953.523 3.304 1.455 4.053 2.795.786 1.318.997 2.883.635 4.695a49.525 49.525 0 01-.456 2.048 44.37 44.37 0 01-.594 1.872c-.585 1.722-1.565 2.967-2.941 3.737-1.368.742-2.986.863-4.853.362zm.762-2.843c1.034.277 1.861.176 2.483-.304.649-.473 1.133-1.128 1.45-1.967.334-1.018.525-1.614.571-1.786.069-.258.198-.855.387-1.789.181-.906.108-1.726-.218-2.46-.327-.734-1.007-1.239-2.041-1.516-1.005-.27-1.833-.168-2.483.304-.65.472-1.123 1.146-1.419 2.021a30.88 30.88 0 00-.516 1.755 34.059 34.059 0 00-.442 1.821c-.144.884-.068 1.69.23 2.416.327.734.993 1.236 1.998 1.505z" fill="#fff"/></svg>