<svg width="156" height="34" fill="none" xmlns="http://www.w3.org/2000/svg"><path d="M13.591 9.221H2.627c-.587 0-.74.28-.74.74v15.3c0 .459.153.739.74.739H5.15c.587 0 .74-.102.74-.765v-5.967h6.63c.586 0 .739-.28.739-.74v-2.014c0-.459-.153-.74-.74-.74H5.89v-2.983h7.702c.586 0 .739-.28.739-.74v-2.09c0-.46-.153-.74-.74-.74zm16.182 0h-2.525c-.459 0-.74.153-.74.74v10.353c0 1.606-1.07 2.524-2.753 2.524s-2.729-.918-2.729-2.524V9.96c0-.586-.28-.739-.74-.739h-2.524c-.459 0-.74.153-.74.74v10.914c0 4.003 3.698 5.508 6.733 5.508 3.034 0 6.757-1.505 6.757-5.508V9.96c0-.586-.28-.739-.74-.739zm17.19 0h-2.448c-.459 0-.74.153-.74.74v8.848l-5.405-8.721c-.332-.51-.51-.867-1.148-.867h-2.397c-.586 0-.74.28-.74.74v15.3c0 .586.281.739.74.739h2.525c.459 0 .74-.153.74-.74v-8.873l5.405 8.746c.332.51.51.867 1.148.867h2.32c.587 0 .74-.28.74-.74V9.96c0-.586-.28-.739-.74-.739zm17.433 11.806c0-.611-.204-.867-.765-.867h-2.499c-.56 0-.612.409-.688.918-.204 1.224-1.3 1.735-2.678 1.735-1.683 0-2.83-.918-2.83-2.55v-5.305c0-1.606 1.147-2.55 2.83-2.55 1.377 0 2.091.383 2.627 1.225.204.306.23.79.765.79h2.448c.586 0 .79-.127.79-.74-.331-3.238-3.468-4.845-6.63-4.845-3.034 0-6.834 1.76-6.834 5.764v6.017c0 4.004 3.8 5.764 6.834 5.764 3.162 0 6.63-2.066 6.63-5.355zm15.73-11.806H77.6c-.46 0-.74.153-.74.74v10.353c0 1.606-1.07 2.524-2.754 2.524-1.683 0-2.728-.918-2.728-2.524V9.96c0-.586-.28-.739-.74-.739h-2.524c-.46 0-.74.153-.74.74v10.914c0 4.003 3.698 5.508 6.732 5.508 3.035 0 6.758-1.505 6.758-5.508V9.96c0-.586-.28-.739-.74-.739zm16.272 8.084c.23-.102 1.861-.918 1.861-3.494 0-2.397-1.785-4.616-5.941-4.616h-7.14c-.587 0-.74.281-.74.74V25.26c0 .46.153.74.74.74h7.497c3.544 0 6.069-1.657 6.069-4.896 0-2.754-2.142-3.723-2.346-3.8zm-3.672 5.074h-4.284v-9.588h3.876c1.326 0 2.116.28 2.116 1.428 0 .995-.637 1.53-2.116 1.53h-.332c-.586 0-.74.28-.74.74v1.938c0 .459.154.739.74.739h.587c1.224 0 2.116.357 2.116 1.555 0 1.148-.714 1.658-1.963 1.658zm21.382.051h-8.134v-3.366h6.834c.586 0 .739-.28.739-.74v-1.989c0-.459-.153-.739-.739-.739h-6.834v-2.78h7.701c.586 0 .739-.28.739-.739V9.96c0-.459-.153-.739-.739-.739h-10.991c-.586 0-.739.28-.739.74v15.3c0 .459.153.739.739.739h11.424c.587 0 .74-.28.74-.74v-2.09c0-.46-.153-.74-.74-.74z" fill="#fff"/><path d="M151.75 23.55v-13.1a1.064 1.064 0 00-.542-.927L139.521 2.95a1.064 1.064 0 00-1.042 0l-11.687 6.574a1.066 1.066 0 00-.542.927v13.1a1.064 1.064 0 00.542.927l11.687 6.574a1.064 1.064 0 001.042 0l11.687-6.574a1.065 1.065 0 00.542-.927z" stroke="#fff" stroke-width="3.506" stroke-linecap="round" stroke-linejoin="round"/><path d="M151.604 9.911L139.126 17l-12.729-7.09M139.126 17l-.125 14.187" stroke="#fff" stroke-width="3.506" stroke-linecap="round" stroke-linejoin="round"/></svg>