<svg width="47" height="28" fill="none" xmlns="http://www.w3.org/2000/svg"><path d="M45.99 21.546a.404.404 0 00-.171-.168.448.448 0 00-.22-.06.45.45 0 00-.223.06.453.453 0 00.224.845c.076 0 .151-.02.223-.06a.456.456 0 00.167-.617zm-.238.392h-.098l-.06-.149h-.059v.149h-.079v-.379h.158c.02 0 .06.001.099.021.02.02.04.058.04.095 0 .042-.02.081-.06.099l.06.164z" fill="#fff"/><path d="M45.635 21.637c0-.008-.04-.008-.06-.008h-.04v.098h.06s.02 0 .04-.008c.02-.009.02-.027.02-.045 0-.014 0-.03-.02-.037zM33.033 0a13.897 13.897 0 00-9.37 3.62A13.895 13.895 0 0014.3.002h-.09C6.542.053.333 6.305.333 13.999c0 7.727 6.258 13.996 13.967 13.996 3.602 0 6.884-1.37 9.363-3.616a13.824 13.824 0 01-1.428-1.53h2.885a13.98 13.98 0 01-1.419 1.499h-.003l.002.002c-.012.01-.025.018-.036.03A13.89 13.89 0 0033.039 28c7.714-.002 13.963-6.27 13.961-14v-.006C46.998 6.264 40.743 0 33.033 0zm-10.64 5.066h2.654c.394.474.757.975 1.085 1.498h-4.735a19.41 19.41 0 01.997-1.498zm-1.822 2.969h6.364c.229.486.429.986.603 1.5h-7.722c.076-.145.346-.729.755-1.5zm-7.038 9.321h-1.658l.987-5.185-2.27 5.185H9.094l-.276-5.15-.987 5.15h-1.5l1.283-6.742H10.2l.118 4.175 1.836-4.175h2.684l-1.304 6.742zm5.862-2.913l-.355 1.947-.06.349-.039.278-.02.187-.02.15h-1.38l.04-.568c-.414.452-.987.662-1.737.662-.888 0-1.5-.611-1.5-1.496 0-1.335 1.066-2.115 2.9-2.115.177 0 .415.017.67.043.04-.18.06-.256.06-.357 0-.362-.296-.497-1.065-.497-.474 0-1.007.057-1.362.152l-.237.06-.138.035.217-1.235c.829-.21 1.362-.288 1.974-.288 1.42 0 2.17.557 2.17 1.607 0 .273-.019.476-.118 1.086zm3.297-2.706c1.361 0 2.23.775 2.23 1.991 0 .407-.06.8-.2 1.356h-3.274c-.02.084-.02.122-.02.174 0 .634.494.958 1.44.958.594 0 1.126-.107 1.718-.348l-.276 1.373a6.393 6.393 0 01-1.677.221c-1.855 0-2.823-.843-2.823-2.458 0-1.88 1.224-3.265 2.883-3.267zm3.457 9.673h-4.956a14.01 14.01 0 01-.825-1.499h6.594a14.021 14.021 0 01-.813 1.499zm3.036-8.279c-.434-.05-.868-.08-1.204-.08-.534 0-.81.15-.81.445 0 .257.08.32.77.597.847.333 1.184.775 1.184 1.527 0 1.251-.809 1.83-2.586 1.83-.216 0-.512-.017-.907-.046a4.143 4.143 0 01-.454-.05l-.296-.054-.08-.015.238-1.265c.533.15.989.216 1.5.216.652 0 .947-.153.947-.495 0-.25-.099-.332-.77-.605-.887-.358-1.282-.837-1.282-1.528 0-1.014.651-1.856 2.507-1.856.395 0 1.047.048 1.48.108l-.237 1.271zm2.587 2.998c.177 0 .315-.018.433-.053l-.217 1.216a4.3 4.3 0 01-1.184.18c-.849 0-1.303-.428-1.303-1.205 0-.155.02-.319.04-.493l.099-.54.078-.433.77-4.187h1.637l-.236 1.26h.848l-.237 1.334h-.849l-.434 2.287c-.02.1-.02.175-.02.226 0 .285.178.406.575.408zm4.037-2.713c-.79 0-1.045.59-1.637 3.943h-1.659l1.007-5.485h1.5l-.157.833c.513-.648.906-.892 1.44-.892.06 0 .12.006.178.014 0 .003.061.013.141.033.02.005.039.005.178.06l-.59 1.55-.198-.041a1.586 1.586 0 00-.203-.015zm2.928 4.087c-1.879 0-2.627-1.138-2.627-2.53 0-1.941 1.283-3.26 3.257-3.26 1.719 0 2.626 1.084 2.626 2.475 0 .34 0 .364-.04.682-.257 1.825-1.52 2.635-3.216 2.633zm3.394-.147a.434.434 0 01-.435-.43c0-.233.198-.425.435-.425s.435.192.435.425c0 .239-.198.43-.435.43z" fill="#fff"/><path d="M42.131 16.602a.336.336 0 00-.335.325c0 .183.158.328.335.328a.32.32 0 00.316-.328.319.319 0 00-.316-.325zm.157.516h-.1l-.059-.148h-.06v.148h-.079v-.38h.158c.022 0 .061.002.1.022.02.019.04.056.04.095 0 .04-.02.081-.06.098l.06.165z" fill="#fff"/><path d="M42.17 16.815c.001-.009-.039-.009-.058-.009h-.042v.098h.06s.02 0 .04-.008.02-.027.02-.043c0-.015 0-.03-.02-.038zM22.672 12.993c-.533 0-.907.349-1.065.984l1.835.004v-.284c0-.445-.276-.704-.77-.704zM17.323 14.893c-.927 0-1.4.28-1.4.834 0 .341.217.56.591.56.672 0 1.145-.562 1.184-1.374a3.091 3.091 0 00-.375-.02zM39.328 13.056c-.849 0-1.361 1-1.361 1.88 0 .746.354 1.246.947 1.234.356 0 1.124-.491 1.263-1.344.039-.2.059-.419.059-.658 0-.571-.236-1.114-.908-1.112z" fill="#fff"/></svg>