<svg width="140" height="23" fill="none" xmlns="http://www.w3.org/2000/svg"><path d="M0 .5v4.427h19.183l.111 4.373H0v13.2h4.97v-8.907h8.716l5.442 8.907h5.663l-5.275-8.693c2.425 0 4.83-1.269 4.83-3.112V3.88c0-1.828-2.145-3.38-4.885-3.38H0zm28.733 0l9.66 13.388V22.5h4.443v-8.612L53.163.5h-5.83l-6.718 8.585L34.063.5h-5.33zm29.26 0v4.427H74.04L57.993 18.154V22.5h23.18v-4.346H65.212L81.174 4.927V.5h-23.18zm29.51 0v4.427h23.042V.5H87.504zm34.535 0h-5.08v22h5.08V7.69l13.159 14.81H140V.5h-4.803v14.488L122.038.5zM87.504 9.3v13.2h23.041v-4.346h-18.46v-4.508h18.46V9.3H87.504z" fill="#232528"/></svg>