<svg width="150" height="35" fill="none" xmlns="http://www.w3.org/2000/svg"><path fill-rule="evenodd" clip-rule="evenodd" d="M35.025 4.314l.962-2.41C36.458.739 35.77-.359 34.599.112l-4.28 1.72-2.798 3.102-2.99-.827 5.594-2.303-2.078-.543a2.417 2.417 0 00-1.353.1c-2.143.73-25.006 9.829-24.747 10.146.134.17 1.708-.273 2.705.617-1.61.5-3.168 1.152-4.652 1.946 3.278-.04 4.242.166 6.896 1.499-1.4.427-2.759.972-4.063 1.631a10.57 10.57 0 014.473 1.338c.116 3.263.073 7.083-.363 10.37l26.734-26.26c.73-.716 1.21-.679 1.233 0l.059 1.678c0 .086.03.063.056 0v-.012zM19.35 17.536l-9.826 9.898-.528 2.331L16.2 35l16.425-13.257-1.935-2.736-4.903 1.02 3.19 1.255-10.736 5.621-1.593-1.025 2.703-8.342zm116.318-4.428l11.365.016c1.124 0 1.73-1.398 2.774-1.587.082-.014.198-.119.193-.17h-16.001c-4.006 0-4.28.909-6.505 6.572-.499 1.275-1.541 3.184-.047 4.195 1.315.895 9.013-.188 11.007.506.101 1.284-1.179 4.289-2.122 5.219l-.994.256h-11.077c-1.594 0-1.179 1.103-2.878 1.552a.235.235 0 00-.149.2h16.946c1.945 0 3.392-.91 3.976-2.346l1.733-4.251c.393-.963-.149-2.667-2.199-2.657l-8.902.037c-.799 0-.752-.774-.528-1.326l2.154-5.305a1.484 1.484 0 011.254-.928v.017zm-53.607 1.165c.396-1.005.592-3.03-2.482-3.03H67.86c-2.963 0-3.903 1.399-4.42 2.708L58.33 26.95c-.59 1.503-.303 3.018 2.195 3.018h10.931c3.906 0 5-1.49 5.907-3.79l4.7-11.905zM63.975 26.626l5.024-12.495c.354-.879.87-1.012 1.825-1.012h4.789c1.041 0 1.197.292.942.954l-5.166 12.97c-.278.7-.535 1.035-1.586 1.035H64.51c-.79 0-.948-.448-.535-1.468v.016zm-18.042 3.223h7.282c.792 0 1.101-.613 1.313-1.154l6.526-16.513c.135-.396.142-.822-.987-.822h-8.124c-1.777-.047-2.234.36-2.71.732l-19.2 15.953c-.707.587-1.906 1.47-2.495 1.685-.08.03-.12.058-.125.114h5.14c.818 0 1.501-.445 2.538-1.31l6.262-5.23c.913-.762 1.532-.85 2.256-.84h6.703c.38 0 1.148.349.78 1.146l-1.584 3.417c-.495 1.07-2.121 2.041-3.052 2.47-.245.12-.516.27-.523.352zm-.931-10.05l7.332-6.071c.931-.77 2.706-1.313 1.947.533l-2.121 5.16c-.441.982-.597 1.096-1.374 1.094l-5.61-.014c-.591-.003-.631-.315-.174-.702zm59.303-8.44c0 .136.061.203.193.234.842.202 3.456 2.097 3.104 2.98l-4.751 11.913c-1.247 3.086 1.039 3.363 1.69 3.36h12.564c1.81 0 3.387-.622 4.422-3.239l5.461-13.823c.414-1.05.751-1.427-.733-1.427h-8.791a.231.231 0 00.122.257c1.24.438 3.3 1.878 3.149 3.141l-4.95 12.41c-.271.675-.742.931-1.437.915h-5.586c-.707 0-.665-.66-.471-1.189l5.698-14.604c.281-.72.274-.932-.754-.932l-8.93.005zm-6.82 1.614c.532 0 .88.417.69.9L95.759 20c-.236.58-.537.591-1.211.594l-5.11.014c-1.14 0-1.34-.382-1.023-1.15l1.414-3.397c.187-.448.236-1.005-.518-1.005h-3.87c-.556.06-.841.154-1.179 1.019l-5.076 12.574c-.37.911.165 1.2.62 1.2h3.5c.791 0 1.077 0 1.565-1.28l1.906-5.017c.55-1.445 1.904-1.57 2.484-.15l2.254 5.522c.27.662.322.932 1.022.932h9.515a.176.176 0 00-.036-.103.18.18 0 00-.089-.065 3.145 3.145 0 01-.606-.26l-1.357-1c-.568-.33-.646-.369-1.162-.369h-1.32c-.695 0-.848-.352-1.129-1.007l-1.539-3.598c-.342-.8-.16-.972.778-.972h1.928c1.92 0 3.316-.953 4.039-2.855l2.244-5.594c.424-1.06 0-2.68-2.09-2.68H83.395a7.95 7.95 0 012.048 1.62h12.041z" fill="#232528"/></svg>