<svg width="47" height="28" fill="none" xmlns="http://www.w3.org/2000/svg"><path d="M32.699 0a13.892 13.892 0 00-9.368 3.62A13.9 13.9 0 0013.968.002h-.09C6.21.053 0 6.305 0 13.999c0 7.726 6.258 13.996 13.967 13.996 3.6 0 6.885-1.368 9.362-3.616a13.824 13.824 0 01-1.428-1.53h2.884a13.984 13.984 0 01-1.418 1.5h-.002c-.011.013-.024.02-.035.03A13.898 13.898 0 0032.703 28c7.713-.003 13.965-6.272 13.963-14v-.007C46.667 6.264 40.413-.002 32.699 0zM22.06 5.065h2.655c.391.475.755.975 1.084 1.498h-4.736c.305-.5.64-1.015.997-1.498zM20.24 8.033h6.367c.226.485.427.986.602 1.5h-7.723c.077-.145.346-.728.754-1.5zM5.702 17.565l.847-5.352-1.911 5.352H3.614l-.133-5.352-.905 5.352H1.14l1.19-7.098H4.5l.075 4.355 1.466-4.355h2.354l-1.173 7.098H5.702zm5.073-.012l.05-.567c-.024.003-.477.685-1.526.685-.55 0-1.436-.3-1.436-1.606 0-1.66 1.351-2.21 2.638-2.21.202 0 .639.036.639.036s.049-.101.049-.375c0-.451-.405-.513-.96-.513-.975 0-1.62.262-1.62.262l.216-1.285s.782-.328 1.8-.328c.528 0 2.044.056 2.044 1.797l-.584 4.104h-1.31zm5.534-1.808c0 1.98-1.914 1.896-2.249 1.896-1.248 0-1.633-.173-1.669-.183l.199-1.303c.002-.012.626.227 1.321.227.4 0 .921-.04.921-.52 0-.718-1.862-.546-1.862-2.253 0-1.505 1.116-1.945 2.217-1.945.85 0 1.372.117 1.372.117l-.188 1.315s-.806-.067-1.016-.067c-.529 0-.817.116-.817.487 0 .745 1.771.38 1.771 2.23zm2.3.52c.132 0 .281-.046.383-.046l-.186 1.266c-.15.042-.572.193-1.115.196-.693.006-1.185-.382-1.185-1.263 0-.59.845-5.46.878-5.492h1.487l-.151.87h.742l-.19 1.404h-.788l-.418 2.585c-.032.206.025.48.543.48zm3.27-4.632c1.633 0 2.121 1.197 2.121 2.18 0 .392-.196 1.358-.196 1.358h-3.022s-.28 1.192 1.317 1.192c.749 0 1.58-.367 1.58-.367l-.263 1.436s-.48.246-1.57.246c-1.183 0-2.57-.502-2.57-2.607.001-1.824 1.108-3.438 2.603-3.438zm3.939 9.775h-4.955a13.853 13.853 0 01-.825-1.499h6.594a14.363 14.363 0 01-.814 1.499zm-.333-3.833H23.96l.928-5.776h1.384l-.133.837s.494-.91 1.16-.91c.193 0 .287.019.287.019-.198.403-.372.773-.553 1.728-1.033-.367-1.112 1.635-1.547 4.102zm5.816-.09s-.8.205-1.301.205c-1.775 0-2.676-1.227-2.676-3.086 0-2.803 1.67-4.296 3.386-4.296.776 0 1.675.365 1.675.365l-.243 1.579s-.608-.426-1.365-.426c-1.011 0-1.92.967-1.92 2.726 0 .866.424 1.673 1.48 1.673.502 0 1.23-.366 1.23-.366l-.266 1.626zm3.58.07l.05-.57c-.024.003-.477.685-1.526.685-.55 0-1.436-.3-1.436-1.606 0-1.66 1.351-2.21 2.637-2.21.202 0 .64.036.64.036s.05-.1.05-.374c0-.451-.405-.513-.96-.513-.976 0-1.62.262-1.62.262l.216-1.285s.782-.328 1.802-.328c.526 0 2.043.056 2.042 1.797l-.584 4.104c0 .003-1.312.003-1.312.003zm3.09.02h-1.526l.928-5.776h1.385l-.133.837s.495-.91 1.16-.91c.194 0 .287.019.287.019-.197.403-.373.773-.553 1.728-1.035-.367-1.113 1.635-1.548 4.102zm4.557-.015l.064-.532s-.493.623-1.385.623c-1.237 0-1.843-1.196-1.843-2.418 0-1.891 1.135-3.54 2.498-3.54.877.003 1.437.778 1.437.778l.322-1.994 1.49-.003-1.137 7.086h-1.446zm2.94-.2a.446.446 0 01-.78 0 .45.45 0 010-.45.457.457 0 01.39-.228c.077 0 .15.02.221.06a.446.446 0 01.17.618zM45.35 21.631c-.01-.006-.019-.017-.034-.023a.236.236 0 00-.077-.008h-.09v.144h.096c.045 0 .075-.003.092-.02a.064.064 0 00.024-.053.073.073 0 00-.011-.04z" fill="#fff"/><path d="M45.66 21.544a.415.415 0 00-.17-.168.454.454 0 00-.22-.06.45.45 0 00-.222.06.418.418 0 00-.17.168.457.457 0 00.393.677.45.45 0 00.39-.677zm-.277.475l-.042-.076a.402.402 0 00-.083-.115.106.106 0 00-.062-.018h-.045v.208h-.08v-.488h.169c.057 0 .099.005.122.015.026.01.048.023.061.047a.123.123 0 01.023.072.14.14 0 01-.038.093.156.156 0 01-.101.045c.017.005.03.015.041.026.02.019.044.05.073.095l.06.096h-.098zM10.621 14.963c-1.09 0-1.31.49-1.31.899 0 .21.12.562.582.562.895 0 1.08-1.176 1.052-1.426-.043-.009-.07-.034-.324-.035zM21.885 12.967c-.81 0-.966.924-.966 1.021h1.65c0-.074.155-1.021-.684-1.021zM42.12 13.128c-.655 0-1.172.76-1.171 1.917 0 .705.25 1.156.786 1.156.806 0 1.194-1.053 1.194-1.838 0-.866-.275-1.235-.81-1.235zM45.401 16.948a.365.365 0 00-.14-.14.367.367 0 00-.51.14.39.39 0 00-.05.189c0 .064.017.128.049.187a.384.384 0 00.327.193c.064 0 .128-.019.186-.052a.376.376 0 00.139-.517zm-.209.437l-.043-.075a.388.388 0 00-.081-.114.098.098 0 00-.064-.019h-.044v.207h-.08v-.487h.168c.057 0 .099.005.123.016a.139.139 0 01.062.046.113.113 0 01.022.072.132.132 0 01-.039.092c-.025.028-.06.04-.1.045.02.007.032.016.042.025.02.02.043.05.07.095l.06.097h-.096zM34.728 14.963c-1.09 0-1.31.49-1.31.899 0 .21.12.562.582.562.895 0 1.08-1.176 1.052-1.426-.043-.009-.07-.034-.324-.035z" fill="#fff"/><path d="M45.16 16.996a.088.088 0 00-.033-.024.27.27 0 00-.079-.01v.001h-.088v.147h.096c.045 0 .075-.006.093-.02a.075.075 0 00.023-.054.064.064 0 00-.012-.04z" fill="#fff"/></svg>