<svg width="27" height="26" fill="none" xmlns="http://www.w3.org/2000/svg"><path d="M7.738 25.1c.827 0 1.497-.688 1.497-1.536 0-.849-.67-1.536-1.497-1.536-.827 0-1.498.688-1.498 1.536 0 .848.67 1.536 1.498 1.536zM17.471 25.1c.827 0 1.497-.688 1.497-1.536 0-.849-.67-1.536-1.497-1.536-.827 0-1.497.688-1.497 1.536 0 .848.67 1.536 1.497 1.536z" fill="#232528"/><path d="M4.209 9.74H21l-2.47 8.87c-.09.32-.279.603-.539.804-.26.201-.576.31-.901.31H8.119c-.326 0-.642-.109-.902-.31a1.538 1.538 0 01-.538-.804L3.294 6.457a.769.769 0 00-.269-.402.736.736 0 00-.45-.155H1" stroke="#232528" stroke-width="2" stroke-linecap="round" stroke-linejoin="round"/><path d="M14.404 13.096c-.575-.575-.194-1.783-.487-2.49C13.614 9.872 12.5 9.282 12.5 8.5c0-.782 1.114-1.372 1.417-2.106.293-.707-.088-1.915.487-2.49.575-.575 1.783-.194 2.49-.487C17.628 3.114 18.218 2 19 2c.782 0 1.372 1.114 2.106 1.417.707.293 1.915-.088 2.49.487.575.575.194 1.783.487 2.49.303.734 1.417 1.324 1.417 2.106 0 .782-1.114 1.372-1.417 2.106-.293.707.088 1.915-.487 2.49-.575.575-1.783.194-2.49.487C20.372 13.886 19.782 15 19 15c-.782 0-1.372-1.114-2.106-1.417-.707-.293-1.915.088-2.49-.487z" fill="#fff" stroke="#5F4FBF" stroke-width="2" stroke-linecap="round" stroke-linejoin="round"/><path d="M21.75 7l-3.667 3.5-1.833-1.75" stroke="#5F4FBF" stroke-width="2" stroke-linecap="round" stroke-linejoin="round"/></svg>