<?xml version="1.0" encoding="utf-8"?><svg viewBox="0 0 98 98" xmlns="http://www.w3.org/2000/svg" xmlns:xlink="http://www.w3.org/1999/xlink"><style>:root>svg{display:none}:root>svg:target{display:block}</style><svg fill="none" viewBox="0 0 98 98" id="add-arrow" xmlns="http://www.w3.org/2000/svg"><path d="M1.813 2.125L48.687 49 1.813 95.875M48.688 2.125L95.561 49 48.688 95.875" stroke="#5F4FBF" stroke-width="3.2" stroke-linecap="round" stroke-linejoin="round"/></svg><svg fill="none" viewBox="0 0 14 19" id="addres-icon" xmlns="http://www.w3.org/2000/svg"><path d="M7 10.116c1.325 0 2.4-1.103 2.4-2.462 0-1.36-1.075-2.462-2.4-2.462-1.326 0-2.4 1.102-2.4 2.462s1.074 2.462 2.4 2.462z" stroke="#fff" stroke-width="1.6" stroke-linecap="round" stroke-linejoin="round"/><path d="M13 7.654c0 5.538-6 9.846-6 9.846s-6-4.308-6-9.846c0-1.632.632-3.198 1.757-4.352A5.925 5.925 0 017 1.5c1.591 0 3.117.648 4.243 1.802A6.234 6.234 0 0113 7.654v0z" stroke="#fff" stroke-width="1.6" stroke-linecap="round" stroke-linejoin="round"/></svg><svg fill="none" viewBox="0 0 26 20" id="answer" xmlns="http://www.w3.org/2000/svg"><path d="M19 7l6 6m0 0l-6 6m6-6H13A12 12 0 011 1" stroke="#5F4FBF" stroke-width="2" stroke-linecap="round" stroke-linejoin="round"/></svg><svg fill="none" viewBox="0 0 19 16" id="arrow-right" xmlns="http://www.w3.org/2000/svg"><path d="M1.417 8h16m0 0L10.87 1.5M17.417 8l-6.546 6.5" stroke="#fff" stroke-width="2" stroke-linecap="round" stroke-linejoin="round"/></svg><svg fill="none" viewBox="0 0 25 29" id="calendar" xmlns="http://www.w3.org/2000/svg"><path d="M23.617 25.443V13.09H1.384v12.352a2.47 2.47 0 002.47 2.47h17.293a2.47 2.47 0 002.47-2.47zM7.56 5.68H3.854a2.47 2.47 0 00-2.47 2.47v4.94h22.233V8.15a2.47 2.47 0 00-2.47-2.47H7.56z" fill="#2A2C2F"/><path d="M23.617 8.15a2.47 2.47 0 00-2.47-2.47H17.44m6.176 2.47v17.293m0-17.293v4.94m0 12.353a2.47 2.47 0 01-2.47 2.47H3.854a2.47 2.47 0 01-2.47-2.47m22.233 0V13.09M1.384 25.443V8.15m0 17.293V13.09m0-4.94a2.47 2.47 0 012.47-2.471H7.56M1.384 8.15v4.94M17.44 1.975V5.68m0 2.47V5.68M7.56 1.974V5.68m0 2.47V5.68m-6.176 7.41h22.233M7.56 5.68h9.881" stroke="#2A2C2F" stroke-width="2" stroke-linecap="round" stroke-linejoin="round"/><path d="M0 12.364h25" stroke="#fff" stroke-width="2"/></svg><svg fill="none" viewBox="0 0 27 25" id="cart" xmlns="http://www.w3.org/2000/svg"><path d="M9.422 25c1.034 0 1.872-.86 1.872-1.92s-.838-1.92-1.872-1.92c-1.033 0-1.871.86-1.871 1.92S8.389 25 9.422 25zM21.588 25c1.034 0 1.872-.86 1.872-1.92s-.838-1.92-1.872-1.92c-1.033 0-1.871.86-1.871 1.92S20.555 25 21.589 25z" fill="#fff"/><path d="M5.01 5.8H26l-3.088 11.087a1.922 1.922 0 01-.673 1.006 1.84 1.84 0 01-1.127.387H9.898a1.84 1.84 0 01-1.127-.387 1.922 1.922 0 01-.672-1.006L3.868 1.697a.96.96 0 00-.337-.503A.92.92 0 002.968 1H1" stroke="#fff" stroke-width="2" stroke-linecap="round" stroke-linejoin="round"/></svg><svg fill="none" viewBox="0 0 20 14" id="catalog" xmlns="http://www.w3.org/2000/svg"><path d="M1.667 1.167h16.667M1.667 7h16.667M1.667 12.833h16.667" stroke="#fff" stroke-width="1.6" stroke-linecap="round" stroke-linejoin="round"/></svg><svg fill="none" viewBox="0 0 28 20" id="catalog-1" xmlns="http://www.w3.org/2000/svg"><path fill-rule="evenodd" clip-rule="evenodd" d="M26.393 6.302C24.165 1.272 21.651-.362 18.246 1A3.503 3.503 0 0016.8 2.05H11.201A3.502 3.502 0 009.754 1C6.349-.36 3.836 1.272 1.607 6.302c-1.8 4.062-1.799 8.575-.867 10.934.399 1.006.975 1.693 1.67 1.987.357.152.742.23 1.13.23 2.018 0 4.009-2.06 5.321-4.245a2.405 2.405 0 012.071-1.186h6.135a2.406 2.406 0 012.07 1.186c1.56 2.595 4.075 5.011 6.455 4.015.693-.294 1.27-.98 1.668-1.987.932-2.36.934-6.872-.867-10.934zm-1.119 12.164c.484-.205.908-.735 1.223-1.532.87-2.2.855-6.444-.854-10.3C23.093.88 20.729.89 18.552 1.762c-.488.184-.91.51-1.213.934a.41.41 0 01-.335.173h-6.007a.41.41 0 01-.335-.173 2.629 2.629 0 00-1.213-.934 5.086 5.086 0 00-1.88-.422c-1.641 0-3.379 1.157-5.212 5.294-1.71 3.856-1.723 8.1-.854 10.3.315.797.739 1.327 1.225 1.533 1.898.795 4.112-1.487 5.432-3.681a3.261 3.261 0 012.774-1.585h6.134a3.26 3.26 0 012.774 1.585c1.32 2.194 3.535 4.476 5.433 3.68z" fill="#5F4FBF"/><path d="M9.268 6.795h-1.23v-1.23a.41.41 0 00-.41-.411H6.222a.41.41 0 00-.41.41v1.23H4.58a.41.41 0 00-.41.41v1.407a.41.41 0 00.41.41h1.23v1.23a.41.41 0 00.41.41h1.407a.41.41 0 00.41-.41v-1.23h1.23a.41.41 0 00.41-.41V7.205a.41.41 0 00-.41-.41zM8.858 8.2h-1.23a.41.41 0 00-.41.41v1.23h-.586v-1.23a.41.41 0 00-.41-.41h-1.23v-.586h1.23a.41.41 0 00.41-.41v-1.23h.586v1.23a.41.41 0 00.41.41h1.23v.586zM15.667 11.052h-3.334a.41.41 0 000 .82h3.334a.41.41 0 000-.82zM20.333 7.107a1.348 1.348 0 100-2.695 1.348 1.348 0 000 2.695zm0-1.875a.527.527 0 110 1.055.527.527 0 010-1.055zM20.333 8.709a1.348 1.348 0 100 2.695 1.348 1.348 0 000-2.695zm0 1.875a.528.528 0 110-1.056.528.528 0 010 1.056zM22.481 6.56a1.348 1.348 0 100 2.696 1.348 1.348 0 000-2.696zm0 1.875a.528.528 0 110-1.055.528.528 0 010 1.055zM19.531 7.908a1.348 1.348 0 10-2.695 0 1.348 1.348 0 002.695 0zm-1.347.527z" fill="#5F4FBF"/></svg><svg fill="none" viewBox="0 0 28 16" id="catalog-2" xmlns="http://www.w3.org/2000/svg"><path d="M24.664.85H3.336A3.226 3.226 0 00.113 4.071v7.856a3.227 3.227 0 003.223 3.223h21.328a3.226 3.226 0 003.223-3.223V4.072A3.226 3.226 0 0024.664.849zm-5.684.82v12.564H9.02V1.67h9.96zM.934 11.928V4.072A2.405 2.405 0 013.336 1.67h4.863v12.66H3.336a2.405 2.405 0 01-2.402-2.402zm26.132 0a2.405 2.405 0 01-2.402 2.402h-4.863V1.67h4.863a2.405 2.405 0 012.402 2.402v7.856z" fill="#5F4FBF"/><path d="M4.566 9.412a.938.938 0 100-1.875.938.938 0 000 1.875zM4.566 12.772a.938.938 0 100-1.875.938.938 0 000 1.875zM6.246 11.092a.937.937 0 100-1.875.937.937 0 000 1.875zM2.887 11.092a.937.937 0 100-1.875.937.937 0 000 1.875zM4.566 6.451a1.816 1.816 0 100-3.633 1.816 1.816 0 000 3.633zm0-2.812a.996.996 0 110 1.992.996.996 0 010-1.992zM23.434 8.463a.937.937 0 100-1.875.937.937 0 000 1.875zM23.434 5.103a.937.937 0 100-1.875.937.937 0 000 1.875zM21.754 6.783a.937.937 0 100-1.875.937.937 0 000 1.875zM25.113 6.783a.937.937 0 100-1.875.937.937 0 000 1.875zM23.434 9.549a1.816 1.816 0 100 3.632 1.816 1.816 0 000-3.632zm0 2.813a.996.996 0 110-1.992.996.996 0 010 1.992z" fill="#5F4FBF"/></svg><svg fill="none" viewBox="0 0 28 28" id="catalog-3" xmlns="http://www.w3.org/2000/svg"><path d="M24.527 1.52H3.472a.41.41 0 00-.41.41v13.066a.41.41 0 00.41.41h21.055a.41.41 0 00.41-.41V1.93a.41.41 0 00-.41-.41zm-.41 13.066H3.883V2.34h20.234v12.246z" fill="#5F4FBF"/><path d="M27.88 25.297l-1.536-8.93V.523a.41.41 0 00-.41-.41H2.066a.41.41 0 00-.41.41v15.844L.12 25.297a.406.406 0 00-.006.07v2.11a.41.41 0 00.41.41h26.954a.41.41 0 00.41-.41v-2.11a.403.403 0 00-.006-.07zM2.413 16.812h23.176l1.402 8.145H1.01l1.402-8.145zM2.476.934h23.047v15.058H2.476V.934zM.934 27.066v-1.289h26.132v1.29H.934z" fill="#5F4FBF"/><path d="M5.191 19.137h1.407a.41.41 0 100-.82H5.19a.41.41 0 100 .82zM8.434 19.137H9.84a.41.41 0 000-.82H8.434a.41.41 0 100 .82zM11.676 19.137h1.406a.41.41 0 000-.82h-1.406a.41.41 0 100 .82zM14.918 19.137h1.406a.41.41 0 100-.82h-1.406a.41.41 0 000 .82zM18.16 19.137h1.406a.41.41 0 100-.82H18.16a.41.41 0 000 .82zM21.402 19.137h1.407a.41.41 0 100-.82h-1.407a.41.41 0 000 .82zM3.57 21.295h1.407a.41.41 0 100-.82H3.57a.41.41 0 100 .82zM8.219 20.475H6.812a.41.41 0 100 .82H8.22a.41.41 0 100-.82zM10.055 21.295h1.406a.41.41 0 000-.82h-1.406a.41.41 0 100 .82zM14.703 21.295a.41.41 0 100-.82h-1.406a.41.41 0 100 .82h1.406zM17.945 20.475H16.54a.41.41 0 000 .82h1.406a.41.41 0 100-.82zM21.188 20.475H19.78a.41.41 0 000 .82h1.407a.41.41 0 100-.82zM22.613 20.885a.41.41 0 00.41.41h1.407a.41.41 0 100-.82h-1.407a.41.41 0 00-.41.41zM3.57 23.453h1.407a.41.41 0 100-.82H3.57a.41.41 0 100 .82zM8.219 22.633H6.812a.41.41 0 100 .82H8.22a.41.41 0 100-.82zM17.945 22.633h-7.89a.41.41 0 100 .82h7.89a.41.41 0 000-.82zM21.188 22.633H19.78a.41.41 0 000 .82h1.407a.41.41 0 100-.82zM24.43 22.633h-1.407a.41.41 0 000 .82h1.407a.41.41 0 100-.82z" fill="#5F4FBF"/></svg><svg fill="none" viewBox="0 0 17 14" id="check" xmlns="http://www.w3.org/2000/svg"><path d="M1 9.4L4.462 13 16 1.462" stroke="#F3F3F3" stroke-width="1.6" stroke-linecap="round" stroke-linejoin="round"/></svg><svg fill="none" viewBox="0 0 14 9" id="delivery-arrow" xmlns="http://www.w3.org/2000/svg"><path d="M1 1.5l6 6 6-6" stroke="#5F4FBF" stroke-width="1.6" stroke-linecap="round" stroke-linejoin="round"/></svg><svg fill="none" viewBox="0 0 32 32" id="facebook" xmlns="http://www.w3.org/2000/svg"><path d="M22.578 8.219h-2.625a3.938 3.938 0 00-3.938 3.937v18.375M10.765 17.406h10.5" stroke="#fff" stroke-width="1.6" stroke-linecap="round" stroke-linejoin="round"/><path d="M23.174 1H8.826A7.826 7.826 0 001 8.826v14.348A7.826 7.826 0 008.826 31h14.348A7.826 7.826 0 0031 23.174V8.826A7.826 7.826 0 0023.174 1z" stroke="#fff" stroke-width="1.6" stroke-linecap="round" stroke-linejoin="round"/></svg><svg fill="none" viewBox="0 0 24 24" id="grade-dislike" xmlns="http://www.w3.org/2000/svg"><path d="M17 2h2.67A2.31 2.31 0 0122 4v7a2.31 2.31 0 01-2.33 2H17m-7 2v4a3 3 0 003 3l4-9V2H5.72a2 2 0 00-2 1.7l-1.38 9a2 2 0 002 2.3H10z" stroke="#232528" stroke-width="1.6" stroke-linecap="round" stroke-linejoin="round"/></svg><svg fill="none" viewBox="0 0 24 24" id="grade-like" xmlns="http://www.w3.org/2000/svg"><path d="M7 22H4a2 2 0 01-2-2v-7a2 2 0 012-2h3m7-2V5a3 3 0 00-3-3l-4 9v11h11.28a2 2 0 002-1.7l1.38-9a1.999 1.999 0 00-2-2.3H14z" stroke="#232528" stroke-width="1.6" stroke-linecap="round" stroke-linejoin="round"/></svg><svg fill="none" viewBox="0 0 32 32" id="inst" xmlns="http://www.w3.org/2000/svg"><path d="M16 22.521a6.522 6.522 0 100-13.043 6.522 6.522 0 000 13.043z" stroke="#fff" stroke-width="1.6" stroke-miterlimit="10"/><path d="M23.174 1H8.826A7.826 7.826 0 001 8.826v14.348A7.826 7.826 0 008.826 31h14.348A7.826 7.826 0 0031 23.174V8.826A7.826 7.826 0 0023.174 1z" stroke="#fff" stroke-width="1.6" stroke-linecap="round" stroke-linejoin="round"/><path d="M24.478 9.478a1.957 1.957 0 100-3.913 1.957 1.957 0 000 3.913z" fill="#fff"/></svg><svg fill="none" viewBox="0 0 27 24" id="like" xmlns="http://www.w3.org/2000/svg"><path d="M13.5 23S1 16 1 7.5a6.501 6.501 0 0112.5-2.504h0A6.501 6.501 0 0126 7.5C26 16 13.5 23 13.5 23z" stroke="#fff" stroke-width="2" stroke-linecap="round" stroke-linejoin="round"/></svg><svg fill="none" viewBox="0 0 26 20" id="mail" xmlns="http://www.w3.org/2000/svg"><path d="M24.11 1.602C23.64 1.216 22.955 1 22 1H4c-.954 0-1.639.216-2.11.602m22.22 0c.641.524.89 1.361.89 2.398v11.959c0 1.037-.249 1.874-.89 2.399-.471.385-1.156.601-2.11.601L20.125 19H4c-.954 0-1.639-.216-2.11-.602C1.248 17.874 1 17.037 1 16V4c0-1.037.249-1.874.89-2.398m22.22 0L21.55 4.164 13 12 1.89 1.602" stroke="#fff" stroke-width="1.6" stroke-linecap="round" stroke-linejoin="round"/></svg><svg fill="none" viewBox="0 0 30 30" id="np" xmlns="http://www.w3.org/2000/svg"><path fill-rule="evenodd" clip-rule="evenodd" d="M24.038 8.876c.09-.03.209.03.328.197l5.4 5.322c.312.318.312.802 0 1.043l-5.4 5.414c-.12.151-.238.196-.328.151-.09-.045-.15-.197-.15-.393V9.224c0-.197.06-.318.15-.348zM14.806 0h.388l.358.151 5.563 5.58c.239.317.149.544-.239.544h-2.312a.73.73 0 00-.715.726v4.143c0 .393-.314.71-.79.71h-4.043a.708.708 0 01-.716-.71V7.001a.721.721 0 00-.715-.726H9.124c-.403 0-.477-.227-.239-.544L14.448.15 14.806 0zM6.111 8.755c.09.06.15.197.15.393v11.613c0 .212-.06.333-.15.363-.104.045-.239 0-.403-.121L.235 15.438c-.313-.241-.313-.725 0-1.043l5.473-5.489c.164-.151.299-.196.403-.151zM13.016 17.903h4.042c.477 0 .805.318.805.726v4.37c0 .484.314.801.701.801h2.148c.403 0 .552.227.239.47l-5.4 5.488A.766.766 0 0115 30a.742.742 0 01-.552-.242L9.05 24.27c-.328-.242-.164-.469.224-.469h2.312c.402 0 .715-.317.715-.801v-4.37c0-.408.314-.726.716-.726z" fill="#ED1C24"/></svg><svg fill="none" viewBox="0 0 29 29" id="paw" xmlns="http://www.w3.org/2000/svg"><path d="M24.022 18.792c1.242.331 2.517-1.339 2.848-2.58.33-1.243-.408-3.45-1.65-3.78-1.242-.33-2.518 1.34-2.848 2.581-.331 1.243.408 3.449 1.65 3.78zM3.266 13.762c1.243.33 2.518-1.34 2.848-2.582.331-1.242-.408-3.448-1.65-3.779-1.242-.33-2.517 1.34-2.848 2.582-.33 1.242.408 3.448 1.65 3.779zM10.793 8.839c1.243.33 2.757-1.308 3.088-2.55.33-1.243-.168-3.417-1.41-3.748-1.243-.33-2.758 1.308-3.088 2.55-.331 1.242.168 3.417 1.41 3.748zM18.564 10.865c1.162.55 2.718-.861 3.268-2.023.55-1.162.223-3.465-.939-4.016-1.161-.55-2.718.862-3.268 2.024-.55 1.161-.223 3.465.94 4.015zM19.022 20.133a5.067 5.067 0 01-1.548-3.532 4.19 4.19 0 00-7.776-2.07 5.067 5.067 0 01-3.1 2.294 3.725 3.725 0 001.393 7.31 8.44 8.44 0 016.188 1.647 3.725 3.725 0 004.843-5.65z" fill="#2A2C2F"/><path d="M24.022 18.792c1.242.331 2.517-1.339 2.848-2.58.33-1.243-.408-3.45-1.65-3.78-1.242-.33-2.518 1.34-2.848 2.581-.331 1.243.408 3.449 1.65 3.78zM3.266 13.762c1.243.33 2.518-1.34 2.848-2.582.331-1.242-.408-3.448-1.65-3.779-1.242-.33-2.517 1.34-2.848 2.582-.33 1.242.408 3.448 1.65 3.779zM10.793 8.839c1.243.33 2.757-1.308 3.088-2.55.33-1.243-.168-3.417-1.41-3.748-1.243-.33-2.758 1.308-3.088 2.55-.331 1.242.168 3.417 1.41 3.748zM18.564 10.865c1.162.55 2.718-.861 3.268-2.023.55-1.162.223-3.465-.939-4.016-1.161-.55-2.718.862-3.268 2.024-.55 1.161-.223 3.465.94 4.015zM19.022 20.133a5.067 5.067 0 01-1.548-3.532 4.19 4.19 0 00-7.776-2.07 5.067 5.067 0 01-3.1 2.294 3.725 3.725 0 001.393 7.31 8.44 8.44 0 016.188 1.647 3.725 3.725 0 004.843-5.65z" stroke="#2A2C2F" stroke-width="3" stroke-linecap="round" stroke-linejoin="round"/></svg><svg fill="none" viewBox="0 0 27 26" id="phone" xmlns="http://www.w3.org/2000/svg"><path d="M8.107 13.085a11.021 11.021 0 005.103 5.08 1.036 1.036 0 001.023-.077l3.27-2.182a1.045 1.045 0 01.993-.09l6.12 2.622a1.042 1.042 0 01.627 1.084A6.273 6.273 0 0119.02 25 17.77 17.77 0 011.25 7.23a6.273 6.273 0 015.478-6.222 1.042 1.042 0 011.084.627l2.625 6.125a1.046 1.046 0 01-.086.984l-2.174 3.321a1.036 1.036 0 00-.07 1.02v0z" stroke="#fff" stroke-width="1.6" stroke-linecap="round" stroke-linejoin="round"/></svg><svg fill="none" viewBox="0 0 30 31" id="schedule" xmlns="http://www.w3.org/2000/svg"><path d="M28.981 13c0-6.627-5.372-12-12-12v12h12z" fill="#2A2C2F"/><path d="M25 17.086c0 6.627-5.373 12-12 12s-12-5.373-12-12c0-6.628 5.373-12 12-12v12h12z" fill="#2A2C2F"/><path d="M28.981 13c0-6.627-5.372-12-12-12v12h12z" stroke="#2A2C2F" stroke-width="2" stroke-linecap="round" stroke-linejoin="round"/><path d="M25 17.086c0 6.627-5.373 12-12 12s-12-5.373-12-12c0-6.628 5.373-12 12-12v12h12z" stroke="#2A2C2F" stroke-width="2" stroke-linecap="round" stroke-linejoin="round"/></svg><svg fill="none" viewBox="0 0 17 16" id="search" xmlns="http://www.w3.org/2000/svg"><path d="M7.875 13.25a6.125 6.125 0 100-12.25 6.125 6.125 0 000 12.25zM12.206 11.456L15.75 15" stroke="#fff" stroke-width="1.6" stroke-linecap="round" stroke-linejoin="round"/></svg><svg fill="none" viewBox="0 0 12 8" id="select" xmlns="http://www.w3.org/2000/svg"><path d="M1 1.5l5 5 5-5" stroke="#fff" stroke-width="1.6" stroke-linecap="round" stroke-linejoin="round"/></svg><svg fill="none" viewBox="0 0 15 15" id="star" xmlns="http://www.w3.org/2000/svg"><path d="M7.818 12.6l3.637 2.305c.465.295 1.042-.143.905-.686l-1.051-4.134a.631.631 0 01.204-.64l3.262-2.715c.428-.356.207-1.068-.343-1.103l-4.26-.277a.607.607 0 01-.523-.386l-1.588-4a.6.6 0 00-1.122 0l-1.588 4a.607.607 0 01-.523.386l-4.26.277c-.55.035-.771.747-.343 1.103l3.262 2.715a.632.632 0 01.204.64l-.974 3.834c-.166.651.527 1.177 1.085.823l3.38-2.141a.593.593 0 01.636 0z" fill="#5F4FBF"/></svg><svg fill="none" viewBox="0 0 19 34" id="swiper-arrow-next" xmlns="http://www.w3.org/2000/svg"><path d="M2 32l15-15L2 2" stroke="#232528" stroke-width="3.2" stroke-linecap="round" stroke-linejoin="round"/></svg><svg fill="none" viewBox="0 0 19 34" id="swiper-arrow-prev" xmlns="http://www.w3.org/2000/svg"><path d="M17 32L2 17 17 2" stroke="#232528" stroke-width="3.2" stroke-linecap="round" stroke-linejoin="round"/></svg><svg fill="none" viewBox="0 0 32 28" id="twitter" xmlns="http://www.w3.org/2000/svg"><path d="M1.396 24.437s6.167-1.234 7.401-4.934c0 0-9.868-3.701-7.401-17.27 0 0 4.934 6.168 12.335 7.402V7.168A6.168 6.168 0 0125.553 4.7H31l-4.934 4.935c0 8.634-6.168 17.269-17.27 17.269-4.933 0-7.4-2.467-7.4-2.467z" stroke="#fff" stroke-width="1.6" stroke-linecap="round" stroke-linejoin="round"/></svg><svg fill="none" viewBox="0 0 22 24" id="user" xmlns="http://www.w3.org/2000/svg"><path d="M11 14.438a6.5 6.5 0 100-13 6.5 6.5 0 000 13z" stroke="#fff" stroke-width="1.6" stroke-miterlimit="10"/><path d="M1.147 22.561a11.38 11.38 0 0119.706 0" stroke="#fff" stroke-width="1.6" stroke-linecap="round" stroke-linejoin="round"/></svg><svg fill="none" viewBox="0 0 19 19" id="x" xmlns="http://www.w3.org/2000/svg"><path d="M17 2L2 17m15 0L2 2" stroke="#232528" stroke-width="3.2" stroke-linecap="round" stroke-linejoin="round"/></svg></svg>