<svg width="59" height="20" fill="none" xmlns="http://www.w3.org/2000/svg"><path d="M23.357.977L20.392 19.06h4.742L28.1.977h-4.744zM16.417.997L11.773 13.33l-.495-1.862c-.916-2.244-3.516-5.466-6.568-7.497l4.246 15.082 5.017-.01L21.44.994l-5.023.004z" fill="#fff"/><path d="M9.478 2.292C9.202 1.19 8.404.862 7.412.822H.061L0 1.183c5.72 1.443 9.506 4.92 11.077 9.099l-1.6-7.989zM37.71 4.444a8.465 8.465 0 013.549.692l.428.21.641-3.92c-.939-.367-2.41-.76-4.247-.76-4.685 0-7.988 2.453-8.013 5.969-.03 2.597 2.352 4.047 4.152 4.913 1.848.888 2.467 1.452 2.459 2.244-.015 1.21-1.474 1.766-2.836 1.766-1.899 0-2.907-.272-4.464-.947l-.611-.289-.667 4.048c1.11.505 3.157.94 5.282.963 4.984 0 8.223-2.424 8.258-6.18.02-2.055-1.244-3.623-3.984-4.91-1.659-.839-2.674-1.397-2.664-2.243 0-.752.861-1.556 2.717-1.556zM54.497.997h-3.663c-1.138 0-1.985.322-2.485 1.501l-7.04 16.574h4.98s.812-2.229.996-2.717l6.072.008c.141.631.578 2.709.578 2.709h4.398L54.497.997zm-5.848 11.656c.39-1.038 1.89-5.054 1.89-5.054-.026.05.386-1.046.631-1.726l.32 1.559 1.098 5.221H48.65z" fill="#fff"/></svg>