<svg width="59" height="24" fill="none" xmlns="http://www.w3.org/2000/svg"><path d="M58.978 13.028c-.077-.51-.453-.818-.996-.824-.167-.003-.334.016-.496-.005-.321-.038-.406.085-.403.377.015 1.43.01 2.86.006 4.287-.004.749-.641 1.518-1.407 1.712-2.377.599-4.751 1.207-7.13 1.8-.268.066-.55.1-.822.098a.444.444 0 01-.334-.205c-.033-.067.071-.229.153-.312.108-.1.246-.181.388-.237.436-.179.88-.34 1.32-.509 1.765-.673 3.534-1.338 5.296-2.015.796-.308 1.225-.916 1.238-1.684.04-2.486.02-4.972.01-7.46 0-.394-.178-.723-.587-.893-.47-.194-.884-.04-1.293.184a6841.302 6841.302 0 01-7.496 4.096c-.736.402-1.146.984-1.142 1.812.008 2.351.002 4.698.004 7.047 0 .117.011.237.043.349.246.798.884 1.256 1.766 1.256 1.758.006 3.522.003 5.281.003 1.753 0 3.5.003 5.253-.003.38 0 .731-.09 1.017-.36.37-.34.35-.774.35-1.206.004-2.29.004-4.576.002-6.87a2.572 2.572 0 00-.02-.438zm-7.31-.734c.178-.528.564-.858 1.154-.942.39-.058.73.22.785.623.085.621-.593 1.344-1.262 1.34-.559 0-.87-.448-.676-1.021zM9.714 3.205v2.152H8.31V3.198h-.734v5.327h.757V6.139h1.387v2.388h.748V3.205h-.753zM28.4 17.866c-.222-1.266-1.06-2.035-2.4-2.162-.528-.046-1.065-.008-1.635-.008v-3.37H23.22v9.371c.847 0 1.666.056 2.474-.015 1.211-.103 2.135-.655 2.567-1.788.252-.657.257-1.341.138-2.028zm-1.773 1.42c-.213 1.036-1.137 1.524-2.252 1.221 0-1.15-.005-2.281.01-3.415 0-.075.113-.198.195-.215 1.115-.272 1.86.154 2.054 1.22.07.384.072.805-.007 1.19zM5.783.334H4.571A1.92 1.92 0 003.14.929c-1.335 1.355-.984 3.928.791 4.477-.596 1.028-1.19 2.053-1.81 3.127.252 0 .447-.015.637.004.252.026.382-.068.498-.282.445-.827.917-1.642 1.378-2.463.213-.376.239-.387.74-.277v2.992h.851v-.463V.738c0-.404 0-.403-.44-.404zM5.35 4.657c-.58-.007-1.183.158-1.624-.34-.505-.568-.649-1.225-.462-1.946.015-.057.04-.112.06-.166.376-.991.872-1.266 2.026-1.101v3.553zM26.819 7.76c-1.262.483-2.132.047-2.36-1.213a3.923 3.923 0 01.13-1.946c.281-.87.839-1.128 1.766-.84.018.005.04-.005.071-.01l.291-.42c-.765-.577-1.814-.44-2.385.289-.44.561-.613 1.211-.67 1.894-.062.784.022 1.544.474 2.233.473.72 1.293 1.057 2.137.831.595-.16.662-.232.546-.818zM6.853 20.59V12.33H2.55c-.059 1.402-.088 2.781-.185 4.158-.087 1.221-.322 2.42-.793 3.572-.155.38-.342.631-.817.54-.025-.004-.056.018-.087.031v3.032h1.285V21.66h4.653v2.006h1.248v-3.076h-1zm-1.394-.01H2.642c.24-.69.534-1.368.712-2.073.358-1.416.355-2.87.365-4.318.002-.223 0-.45 0-.695H5.46L5.46 20.58zM18.948 7.832c-.218.072-.427.16-.646.21-.61.142-1.044-.014-1.276-.454-.272-.515-.26-1.068-.242-1.648h2.3c.05-.866-.043-1.679-.522-2.417-.421-.65-1.15-.753-1.729-.22-.217.2-.4.454-.528.713a4.096 4.096 0 00-.412 2.286c.054.489.171.986.353 1.447.264.677.874 1.024 1.579.938.34-.041.682-.152 1.003-.28.358-.141.367-.272.12-.575zm-1.783-3.906c.26-.37.687-.359.916.029.257.429.288.903.277 1.4h-1.602c.025-.52.112-1.002.409-1.43zM21.062 12.503c-.05-.07-.113-.174-.176-.177-.379-.018-.76-.01-1.179-.01v3.851h-2.46v-3.845h-1.312v9.407h1.329v-.368c0-1.098-.002-2.19 0-3.287 0-.604 0-.604.63-.604h1.823v4.262h1.333c.006-.104.016-.192.016-.277v-8.837c0-.04.016-.089-.004-.115zM21.796 5.288c.458-.605.897-1.223 1.343-1.835.054-.075.102-.154.178-.268-.144 0-.228.01-.308-.001-.326-.05-.524.07-.701.338-.391.588-.825 1.15-1.243 1.721-.048.064-.107.12-.222.247V3.2h-.726v5.2h.737c0-.618-.012-1.223.007-1.825.008-.208.09-.415.138-.622.142.1.202.188.256.28.379.654.753 1.307 1.136 1.955.05.086.136.202.216.214.217.032.439.011.706.011-.532-.93-1.029-1.807-1.538-2.68-.096-.164-.103-.283.02-.445zM39.254 12.296c-.214-.008-.31.061-.386.248-.515 1.3-1.042 2.594-1.567 3.89-.229.567-.467 1.134-.698 1.7-.023-.002-.04-.007-.063-.01v-5.805h-1.328v9.42h1.304c.828-2.052 1.657-4.112 2.492-6.19v6.186h1.5v-9.432c-.431 0-.843.013-1.254-.007zM14.115 20.387c-.408.144-.775.31-1.162.4-1.259.296-2.081-.103-2.44-1.15-.277-.804-.267-1.634-.278-2.51h4.107c-.057-.73-.063-1.44-.178-2.13-.146-.862-.436-1.69-1.037-2.384-.53-.615-1.17-.794-1.968-.546-.828.258-1.333.855-1.673 1.562-.996 2.076-1.082 4.215-.319 6.37.23.652.618 1.22 1.265 1.582 1.084.612 2.837.4 3.936-.483-.087-.245-.174-.493-.253-.711zm-3.26-6.672c.194-.312.452-.567.884-.544.423.026.674.28.844.61.376.74.439 1.533.435 2.356h-2.823c.072-.87.205-1.687.66-2.422zM14.732 7.817V3.198h-2.428c0 .346.01.657-.001.97-.04 1.084-.075 2.17-.47 3.209-.097.256-.17.53-.546.473v1.676h.7V8.437h2.63v1.084h.662v-1.68c-.19-.007-.352-.016-.547-.024zm-.766 0H12.33c.71-1.26.613-2.612.664-3.963h.972v3.963zM29.628 12.316c0 3.154 0 6.285.004 9.417h1.213v-8.47h3.7v-.947h-4.917z" fill="#fff"/></svg>